<svg width="25" height="36" viewBox="0 0 25 36" fill="none" xmlns="http://www.w3.org/2000/svg">
<mask id="mask0_4304_772" style="mask-type:luminance" maskUnits="userSpaceOnUse" x="0" y="0" width="25" height="36">
<path d="M3.30791 12.7806C3.30244 9.62412 3.30244 6.46762 3.30791 3.31112C3.30791 3.16192 3.32981 3.01135 3.34213 2.85393C3.39948 2.82757 3.45964 2.80782 3.52145 2.79507C6.10715 2.80876 8.69422 2.81834 11.2799 2.84572C11.6246 2.86256 11.9663 2.91859 12.2983 3.01272C14.8498 3.64374 16.2474 5.56831 16.09 8.21424C15.9216 11.034 14.164 13.0215 11.2991 13.2392C9.55521 13.3761 7.80038 13.3596 6.04419 13.3473C5.2489 13.3473 4.45225 13.3364 3.65833 13.3473H3.64875C3.21346 13.3473 3.31065 13.0243 3.31065 12.7793M2.52631 0.150511C1.23415 0.150511 0.809814 0.574846 0.809814 1.87386C0.809814 9.53104 0.809814 17.1891 0.809814 24.8482C0.809814 25.9432 1.27111 26.5811 2.05134 26.5852C2.83156 26.5893 3.30791 25.9391 3.30791 24.8577C3.30791 22.0818 3.31886 19.3058 3.29833 16.5298C3.29833 16.0631 3.41331 15.9002 3.90472 15.9084C5.68418 15.9358 7.47187 15.9317 9.25544 15.9084C9.65514 15.9084 9.87278 16.0453 10.0849 16.371C11.2904 18.1907 12.5114 20.0002 13.7479 21.7998C14.0025 22.168 14.0217 22.413 13.763 22.8004C11.384 26.3251 9.02411 29.8649 6.66564 33.3992C6.50737 33.6149 6.37375 33.8477 6.2673 34.0932C6.02776 34.7242 6.29331 35.4552 6.834 35.7358C7.37468 36.0164 7.92906 35.8343 8.37529 35.2416C8.47932 35.1047 8.56966 34.9569 8.66411 34.8132C10.356 32.2352 12.0478 29.6573 13.7397 27.0793C14.3228 26.1923 14.9128 25.3108 15.5424 24.3609C16.3925 25.6475 17.1946 26.8562 17.994 28.0676C19.5645 30.4512 21.1345 32.8339 22.7041 35.2156C23.1148 35.8371 23.6705 36.015 24.2249 35.7453C24.5174 35.5961 24.7451 35.345 24.8652 35.0394C24.9852 34.7337 24.9892 34.3947 24.8764 34.0863C24.7812 33.8565 24.6599 33.6384 24.5151 33.4361C22.1552 29.8772 19.7903 26.3215 17.4205 22.7689C17.1659 22.3898 17.1645 22.1379 17.4205 21.7601C19.6817 18.4339 21.9289 15.098 24.1619 11.7526C24.3283 11.5199 24.4661 11.2681 24.5725 11.0025C24.6759 10.7111 24.6745 10.3927 24.5685 10.1022C24.4626 9.8117 24.2588 9.56715 23.9922 9.41059C23.4761 9.13682 22.9217 9.30108 22.4865 9.86093C22.3578 10.0279 22.2456 10.2059 22.1278 10.3811C20.0682 13.4983 18.0072 16.6156 15.9449 19.7329C15.8436 19.8848 15.7313 20.0299 15.5849 20.2311L12.4927 15.5621C12.5666 15.4936 12.5899 15.4553 12.6227 15.4444C12.8965 15.3581 13.1703 15.2801 13.444 15.1939C15.6903 14.4875 17.2617 13.0599 18.098 10.8506C18.5287 9.67639 18.6851 8.41923 18.5552 7.1753C18.2814 4.12283 16.8031 1.87796 13.8821 0.806177C12.7733 0.39553 11.5345 0.22169 10.3464 0.180625C9.25133 0.142298 8.15628 0.131348 7.05301 0.131348C5.5473 0.131348 4.03065 0.15188 2.52084 0.15188" fill="white"/>
</mask>
<g mask="url(#mask0_4304_772)">
<path d="M9.00215 -11.3611L-16.1653 23.9224L16.9162 47.5191L42.0836 12.2357L9.00215 -11.3611Z" fill="url(#paint0_linear_4304_772)"/>
</g>
<defs>
<linearGradient id="paint0_linear_4304_772" x1="1.79234" y1="34.0482" x2="28.3945" y2="-3.24674" gradientUnits="userSpaceOnUse">
<stop stop-color="#D9336D"/>
<stop offset="0.06" stop-color="#CD3B75"/>
<stop offset="0.17" stop-color="#AC4F8C"/>
<stop offset="0.31" stop-color="#7871B0"/>
<stop offset="0.36" stop-color="#647DBD"/>
<stop offset="1" stop-color="#8DCFD6"/>
</linearGradient>
</defs>
</svg>
