<svg width="140" height="36" viewBox="0 0 140 36" fill="none" xmlns="http://www.w3.org/2000/svg">
<path d="M85.528 12.8671C85.0311 12.8671 84.7628 13.2052 84.7628 13.8622C84.7628 15.9866 84.7628 18.1056 84.7628 20.2355C84.7626 20.6365 84.7315 21.0369 84.6697 21.4332C84.3193 23.5822 82.496 25.0167 80.2334 24.9428C78.1158 24.8744 76.7826 23.5631 76.5375 21.3004C76.5156 21.0336 76.5074 20.7659 76.5129 20.4983C76.5129 18.2589 76.5129 16.0208 76.5129 13.7815C76.5129 13.1997 76.2008 12.8507 75.7135 12.8712C75.1988 12.8945 74.9456 13.212 74.947 13.6925C74.9579 16.4096 74.9059 19.1294 75.0305 21.8411C75.1085 23.5576 75.9804 24.936 77.5395 25.7819C78.6644 26.3812 79.9585 26.5835 81.2127 26.3562C82.4668 26.129 83.6076 25.4853 84.4507 24.5294C84.5122 24.4331 84.5584 24.3279 84.5876 24.2174L84.7751 24.3433C84.7751 24.617 84.7751 24.9018 84.7751 25.181C84.7751 25.8777 85.0393 26.2117 85.5676 26.2063C86.0686 26.2063 86.3328 25.875 86.3342 25.2111C86.3342 21.4222 86.3342 17.6351 86.3342 13.8499C86.3342 13.212 86.0426 12.8671 85.543 12.8671M68.4875 14.4371C69.6195 14.4371 70.7502 14.4371 71.8808 14.4371C72.4174 14.4371 72.7308 14.1428 72.7295 13.7062C72.7281 13.2695 72.4064 12.9875 71.8808 12.9656C71.5934 12.9547 71.3059 12.9656 71.0184 12.9656H68.1439C68.1302 12.7357 68.1138 12.5865 68.1124 12.4373C68.1124 11.4996 68.1207 10.562 68.1124 9.62435C68.1056 9.09598 67.7771 8.74693 67.3144 8.77157C66.8025 8.79895 66.5698 9.11378 66.5492 9.60108C66.5369 9.868 66.5492 10.1363 66.5492 10.4046C66.5492 11.2396 66.5492 12.0732 66.5492 12.9684C66.1016 12.9684 65.7416 12.9574 65.383 12.9684C64.9149 12.9848 64.5863 13.2216 64.5946 13.6993C64.6028 14.177 64.9108 14.4221 65.3857 14.4371C65.7444 14.4481 66.1044 14.4371 66.5492 14.4371C66.5492 14.8012 66.5492 15.0668 66.5492 15.3337C66.5588 17.9167 66.4835 20.5024 66.6013 23.0812C66.7244 25.7723 70.0753 27.3875 72.3503 25.9133C72.5529 25.7764 72.6939 25.3576 72.6556 25.0989C72.6022 24.7361 72.2654 24.5513 71.863 24.6225C71.7138 24.6499 71.5687 24.7088 71.4209 24.7457C69.328 25.2563 68.1234 24.3269 68.122 22.1983C68.122 19.8257 68.122 17.4531 68.122 15.0805V14.4755C68.3095 14.4577 68.404 14.4412 68.4984 14.4412M99.4749 18.7339C99.5679 16.3439 101.432 14.1237 104.013 14.1332C106.49 14.1415 108.237 16.0496 108.354 18.7339H99.4749ZM109.84 17.3527C109.192 14.9983 107.786 13.327 105.316 12.8123C102.845 12.2977 100.819 13.0861 99.2326 15.0285C98.2224 16.2604 97.8131 17.7182 97.7365 19.2828C97.5996 22.1354 99.1245 24.7443 101.594 25.8531C104.086 26.9783 107.133 26.4266 109.165 24.4843C109.696 23.9764 109.771 23.5754 109.407 23.2085C109.043 22.8417 108.686 22.9348 108.152 23.3591C107.7 23.7458 107.207 24.0831 106.683 24.3652C103.398 25.9955 99.5324 23.8094 99.4448 20.204H100.166C103.138 20.204 106.11 20.204 109.08 20.204C109.848 20.204 110.141 19.9193 110.09 19.1568C110.064 18.5455 109.976 17.9384 109.829 17.3445M59.3383 24.1229C57.7135 25.0605 56.0066 25.2577 54.2846 24.4062C53.3333 23.9354 52.8241 23.1305 52.8446 22.0437C52.8651 20.9568 53.4291 20.1506 54.416 19.7851C55.3003 19.4593 56.2584 19.3389 57.0387 19.1637C58.3815 19.369 59.534 19.5497 60.6866 19.718C61.0096 19.7659 61.1109 19.922 61.1356 20.2519C61.2505 21.8821 60.8289 23.2633 59.3383 24.127M59.9378 13.3229C57.4986 12.299 55.0908 12.7097 52.757 13.765C52.6707 13.7988 52.5922 13.8497 52.5262 13.9148C52.4602 13.9798 52.4081 14.0575 52.3731 14.1433C52.338 14.229 52.3207 14.321 52.3222 14.4136C52.3237 14.5062 52.3441 14.5976 52.3819 14.6821C52.5407 15.112 52.8898 15.242 53.3141 15.1297C53.5495 15.0515 53.7803 14.9601 54.0054 14.856C55.5111 14.2729 57.0469 14.0497 58.6238 14.4727C60.3772 14.9422 61.4066 16.6094 61.037 18.1877C59.6517 18.07 58.2843 17.8961 56.9114 17.851C55.5138 17.8072 54.1573 18.0782 52.9623 18.8707C52.4164 19.2223 51.9665 19.7042 51.6533 20.2729C51.3401 20.8417 51.1734 21.4795 51.1683 22.1289C51.1631 22.7782 51.3196 23.4185 51.6238 23.9922C51.9279 24.5659 52.37 25.0549 52.9103 25.4151C54.2216 26.3117 55.6945 26.5553 57.2481 26.3732C58.7264 26.1953 59.9721 25.5342 61.0986 24.3364C61.0986 24.7758 61.0917 25.0414 61.0986 25.3083C61.1178 25.9092 61.4011 26.2282 61.8966 26.2172C62.3675 26.2076 62.6563 25.8996 62.6577 25.3288C62.6645 22.765 62.6933 20.2012 62.6426 17.6388C62.6057 15.6923 61.8022 14.1141 59.9365 13.3311M96.1418 12.7836C94.788 12.9287 93.6642 13.5501 92.7197 14.4946C92.3091 14.9053 91.945 15.3775 91.4796 15.9141C91.4796 15.1024 91.4796 14.3974 91.4796 13.6925C91.4796 13.1874 91.2058 12.9068 90.7089 12.8712C90.2723 12.8397 89.9657 13.1655 89.9219 13.6747C89.9082 13.828 89.9219 13.9813 89.9137 14.1332V24.8621C89.9137 25.0154 89.9137 25.1687 89.9137 25.322C89.9438 25.9078 90.2394 26.2282 90.7349 26.2104C91.2058 26.1939 91.4741 25.8859 91.4768 25.311C91.4851 23.704 91.4577 22.097 91.4864 20.4914C91.5453 17.0926 93.3165 14.9313 96.3827 14.4686C97.0575 14.3687 97.3929 14.0169 97.3203 13.4858C97.2478 12.9547 96.8276 12.7042 96.1445 12.7781M17.8712 14.0662C17.8789 13.8569 17.8624 13.6475 17.8219 13.442C17.7206 13.0313 17.3921 12.7836 17.0157 12.8945C16.7419 12.9725 16.5106 13.2791 16.3203 13.5282C16.2368 13.6405 16.2943 13.8622 16.2943 14.0347V24.7553C16.2943 24.9853 16.2861 25.2152 16.2943 25.4397C16.3231 25.9147 16.5859 26.183 17.0595 26.1994C17.5331 26.2158 17.7959 25.9366 17.8548 25.4739C17.8685 25.3219 17.8726 25.1692 17.8671 25.0167C17.8671 21.3666 17.8671 17.7164 17.8671 14.0662M17.091 7.80245C16.5079 7.78739 16.1479 8.20214 16.141 8.8975C16.1328 9.62024 16.4504 10.0377 17.0267 10.0637C17.6029 10.0897 18.0054 9.65309 18.0191 8.99058C18.0327 8.25689 17.6892 7.81477 17.091 7.79834M10.6165 17.4266C9.52141 16.9366 8.3319 16.671 7.18346 16.3097C6.10757 15.9702 5.01114 15.6869 3.95578 15.2899C2.86073 14.8793 2.25844 14.0443 2.21738 12.826C2.17358 11.5831 2.72932 10.6948 3.76415 10.0774C4.68536 9.5299 5.70514 9.39302 6.75776 9.43682C8.3221 9.4961 9.82895 10.0421 11.0682 10.9986C11.5514 11.3614 12.0387 11.3066 12.3357 10.9028C12.6327 10.499 12.5397 10.0309 12.0346 9.67089C11.6198 9.36128 11.1771 9.09092 10.7123 8.86328C8.14438 7.69842 5.53677 7.41644 2.96749 8.80032C0.934794 9.89537 0.105288 12.0294 0.752741 14.1798C1.18939 15.6307 2.28034 16.4643 3.61084 16.9626C4.73738 17.3842 5.93784 17.6196 7.08217 17.9755C8.11116 18.2706 9.12331 18.6216 10.1141 19.0268C10.8861 19.3594 11.3611 20.0137 11.4829 20.8856C11.7567 22.7418 10.6616 24.2666 8.62209 24.6704C5.99943 25.1906 3.64369 24.55 1.60415 22.7993C1.02377 22.2996 0.559737 22.2709 0.202474 22.6884C-0.154788 23.1059 -0.0425445 23.5809 0.588482 24.0791C2.43913 25.541 4.53206 26.339 6.44293 26.3555C8.48795 26.4075 9.94574 25.9996 11.0709 25.285C13.747 23.5863 14.2192 19.0459 10.611 17.4212M27.2737 23.6329C24.5743 23.6329 22.4828 21.5591 22.4691 18.8913C22.4581 16.1249 24.4073 14.2003 27.2367 14.1853C30.1742 14.1702 32.4245 16.2015 32.4382 18.8748C32.4478 21.503 30.1304 23.6383 27.2778 23.6329M33.9467 13.9033C33.9467 13.2189 33.6606 12.8589 33.1541 12.8602C32.6476 12.8616 32.3944 13.2175 32.3889 13.9224C32.3889 14.2797 32.3889 14.6397 32.3889 15.127C29.1585 11.5475 24.7824 12.3894 22.6594 14.4727C20.3775 16.7148 20.1407 20.3655 22.1707 22.8225C23.2113 24.1056 24.7169 24.9253 26.3593 25.103C28.7725 25.4 30.7272 24.4884 32.3301 22.6117C32.3301 23.3673 32.3807 24.0134 32.3205 24.6499C32.1083 26.84 30.7436 28.2773 28.5822 28.6072C26.514 28.9234 24.6332 28.4224 22.8921 27.289C22.6388 27.1247 22.2816 26.9728 22.0105 27.0221C21.7751 27.0645 21.4233 27.4081 21.4302 27.6066C21.4434 27.7772 21.4912 27.9434 21.5708 28.0949C21.6503 28.2465 21.7599 28.3802 21.8928 28.4881C23.7298 29.7753 25.9639 30.3691 28.1976 30.1635C31.3746 29.8966 33.5032 27.9953 33.8577 25.0373C34.0069 23.7903 33.9289 22.5145 33.9343 21.2511C33.9426 18.8023 33.9343 16.3535 33.9343 13.9033M42.2841 12.7904C41.0111 13.0642 40.0064 13.7486 39.1003 14.7136C39.1003 14.3728 39.1003 14.0292 39.1003 13.6925C39.1003 13.1874 38.8265 12.9054 38.3337 12.8712C37.8957 12.837 37.5836 13.1628 37.5343 13.6692C37.5193 13.8212 37.5261 13.9758 37.5261 14.1291C37.5261 17.7456 37.5261 21.3624 37.5261 24.9798C37.5184 25.1896 37.5322 25.3997 37.5672 25.6067C37.6521 26.0242 37.9409 26.2186 38.3556 26.2076C38.7704 26.1967 39.0305 25.9612 39.0879 25.5424C39.1037 25.3708 39.1078 25.1984 39.1003 25.0263C39.1003 22.8266 39.0688 20.6242 39.114 18.4245C39.1509 16.6341 39.9352 15.2269 41.6326 14.5151C43.23 13.8485 44.7987 13.9443 46.1497 15.1297C47.1216 15.977 47.331 17.157 47.3406 18.3684C47.3597 20.6653 47.3406 22.9608 47.3488 25.2577C47.3488 25.8942 47.639 26.2158 48.1564 26.2158C48.6451 26.2049 48.9038 25.8969 48.9038 25.2672C48.9038 22.8184 48.9462 20.3682 48.8928 17.9194C48.8107 14.2236 45.906 12.0102 42.2773 12.8014" fill="#070707"/>
<mask id="mask0_4301_1207" style="mask-type:luminance" maskUnits="userSpaceOnUse" x="114" y="0" width="25" height="36">
<path d="M117.308 12.7806C117.302 9.62412 117.302 6.46762 117.308 3.31112C117.308 3.16192 117.33 3.01135 117.342 2.85393C117.399 2.82757 117.46 2.80782 117.521 2.79507C120.107 2.80876 122.694 2.81834 125.28 2.84572C125.625 2.86256 125.966 2.91859 126.298 3.01272C128.85 3.64374 130.247 5.56831 130.09 8.21424C129.922 11.034 128.164 13.0215 125.299 13.2392C123.555 13.3761 121.8 13.3596 120.044 13.3473C119.249 13.3473 118.452 13.3364 117.658 13.3473H117.649C117.213 13.3473 117.311 13.0243 117.311 12.7793M116.526 0.150511C115.234 0.150511 114.81 0.574846 114.81 1.87386C114.81 9.53104 114.81 17.1891 114.81 24.8482C114.81 25.9432 115.271 26.5811 116.051 26.5852C116.832 26.5893 117.308 25.9391 117.308 24.8577C117.308 22.0818 117.319 19.3058 117.298 16.5298C117.298 16.0631 117.413 15.9002 117.905 15.9084C119.684 15.9358 121.472 15.9317 123.255 15.9084C123.655 15.9084 123.873 16.0453 124.085 16.371C125.29 18.1907 126.511 20.0002 127.748 21.7998C128.003 22.168 128.022 22.413 127.763 22.8004C125.384 26.3251 123.024 29.8649 120.666 33.3992C120.507 33.6149 120.374 33.8477 120.267 34.0932C120.028 34.7242 120.293 35.4552 120.834 35.7358C121.375 36.0164 121.929 35.8343 122.375 35.2416C122.479 35.1047 122.57 34.9569 122.664 34.8132C124.356 32.2352 126.048 29.6573 127.74 27.0793C128.323 26.1923 128.913 25.3108 129.542 24.3609C130.392 25.6475 131.195 26.8562 131.994 28.0676C133.564 30.4512 135.135 32.8339 136.704 35.2156C137.115 35.8371 137.67 36.015 138.225 35.7453C138.517 35.5961 138.745 35.345 138.865 35.0394C138.985 34.7337 138.989 34.3947 138.876 34.0863C138.781 33.8565 138.66 33.6384 138.515 33.4361C136.155 29.8772 133.79 26.3215 131.42 22.7689C131.166 22.3898 131.164 22.1379 131.42 21.7601C133.682 18.4339 135.929 15.098 138.162 11.7526C138.328 11.5199 138.466 11.2681 138.573 11.0025C138.676 10.7111 138.674 10.3927 138.569 10.1022C138.463 9.8117 138.259 9.56715 137.992 9.41059C137.476 9.13682 136.922 9.30108 136.486 9.86093C136.358 10.0279 136.246 10.2059 136.128 10.3811C134.068 13.4983 132.007 16.6156 129.945 19.7329C129.844 19.8848 129.731 20.0299 129.585 20.2311L126.493 15.5621C126.567 15.4936 126.59 15.4553 126.623 15.4444C126.897 15.3581 127.17 15.2801 127.444 15.1939C129.69 14.4875 131.262 13.0599 132.098 10.8506C132.529 9.67639 132.685 8.41923 132.555 7.1753C132.281 4.12283 130.803 1.87796 127.882 0.806177C126.773 0.39553 125.535 0.22169 124.346 0.180625C123.251 0.142298 122.156 0.131348 121.053 0.131348C119.547 0.131348 118.031 0.15188 116.521 0.15188" fill="white"/>
</mask>
<g mask="url(#mask0_4301_1207)">
<path d="M123.002 -11.3611L97.8347 23.9224L130.916 47.5191L156.084 12.2357L123.002 -11.3611Z" fill="url(#paint0_linear_4301_1207)"/>
</g>
<defs>
<linearGradient id="paint0_linear_4301_1207" x1="115.792" y1="34.0482" x2="142.395" y2="-3.24674" gradientUnits="userSpaceOnUse">
<stop stop-color="#D9336D"/>
<stop offset="0.06" stop-color="#CD3B75"/>
<stop offset="0.17" stop-color="#AC4F8C"/>
<stop offset="0.31" stop-color="#7871B0"/>
<stop offset="0.36" stop-color="#647DBD"/>
<stop offset="1" stop-color="#8DCFD6"/>
</linearGradient>
</defs>
</svg>
