<svg width="20" height="20" viewBox="0 0 20 20" fill="none" xmlns="http://www.w3.org/2000/svg">
<path fill-rule="evenodd" clip-rule="evenodd" d="M5.00008 3.3335C3.15913 3.3335 1.66675 4.82588 1.66675 6.66683V14.1668C1.66675 15.5475 2.78604 16.6668 4.16675 16.6668H11.6667H12.5001H13.3334H15.8334C17.2141 16.6668 18.3334 15.5475 18.3334 14.1668V10.8335C18.3334 8.99255 16.841 7.50016 15.0001 7.50016H13.3334V6.66683C13.3334 4.82588 11.841 3.3335 10.0001 3.3335H5.00008ZM13.3334 9.16683V15.0002H15.8334C16.2937 15.0002 16.6667 14.6271 16.6667 14.1668V10.8335C16.6667 9.91302 15.9206 9.16683 15.0001 9.16683H13.3334ZM11.6667 7.50016V6.66683C11.6667 5.74635 10.9206 5.00016 10.0001 5.00016H5.00008C4.07961 5.00016 3.33341 5.74635 3.33341 6.66683V14.1668C3.33341 14.6271 3.70651 15.0002 4.16675 15.0002H11.6667V8.3335V7.50016Z" fill="#6983E6"/>
<path d="M5.83325 14.1668C5.83325 13.7066 6.20635 13.3335 6.66659 13.3335H8.33325C8.79349 13.3335 9.16659 13.7066 9.16659 14.1668V16.6668H5.83325V14.1668Z" fill="#6983E6"/>
<path fill-rule="evenodd" clip-rule="evenodd" d="M7.5 6.6665C7.03976 6.6665 6.66667 7.0396 6.66667 7.49984V8.33317H5.83333C5.3731 8.33317 5 8.70627 5 9.1665C5 9.62674 5.3731 9.99984 5.83333 9.99984H6.66667V10.8332C6.66667 11.2934 7.03976 11.6665 7.5 11.6665C7.96024 11.6665 8.33333 11.2934 8.33333 10.8332V9.99984H9.16667C9.6269 9.99984 10 9.62674 10 9.1665C10 8.70627 9.6269 8.33317 9.16667 8.33317L8.33333 8.33317V7.49984C8.33333 7.0396 7.96024 6.6665 7.5 6.6665Z" fill="#6983E6"/>
</svg>
