<svg width="20" height="21" viewBox="0 0 20 21" fill="none" xmlns="http://www.w3.org/2000/svg">
<g id="icons / calendar">
<g id="Union">
<path d="M6.75004 2.49902C7.16425 2.49903 7.50003 2.83482 7.50003 3.24904L7.5 4.74904C7.49999 5.16325 7.1642 5.49903 6.74999 5.49902C6.33577 5.49902 5.99999 5.16322 6 4.74901L6.00003 3.24901C6.00003 2.8348 6.33582 2.49902 6.75004 2.49902Z" fill="#8F98A8"/>
<path d="M13.25 2.49902C13.6643 2.49903 14 2.83482 14 3.24904L14 4.74904C14 5.16325 13.6642 5.49903 13.25 5.49902C12.8358 5.49902 12.5 5.16322 12.5 4.74901L12.5 3.24901C12.5 2.8348 12.8358 2.49902 13.25 2.49902Z" fill="#8F98A8"/>
<path d="M2 6.25075C2 4.73197 3.23122 3.50075 4.75 3.50075C5.16421 3.50075 5.5 3.83654 5.5 4.25075C5.5 4.66497 5.16421 5.00075 4.75 5.00075C4.05964 5.00075 3.5 5.5604 3.5 6.25075V15.7508C3.5 16.4411 4.05964 17.0008 4.75 17.0008H15.25C15.9404 17.0008 16.5 16.4411 16.5 15.7508V6.25075C16.5 5.5604 15.9404 5.00075 15.25 5.00075C14.8358 5.00075 14.5 4.66497 14.5 4.25075C14.5 3.83654 14.8358 3.50075 15.25 3.50075C16.7688 3.50075 18 4.73197 18 6.25075V15.7508C18 17.2695 16.7688 18.5008 15.25 18.5008H4.75C3.23122 18.5008 2 17.2695 2 15.7508V6.25075Z" fill="#8F98A8"/>
<path d="M8 4.25075C8 3.83654 8.33579 3.50075 8.75 3.50075H11.25C11.6642 3.50075 12 3.83654 12 4.25075C12 4.66497 11.6642 5.00075 11.25 5.00075H8.75C8.33579 5.00075 8 4.66497 8 4.25075Z" fill="#8F98A8"/>
<path d="M7 11.4998C7 12.0525 6.55228 12.5006 6 12.5006C5.44772 12.5006 5 12.0525 5 11.4998C5 10.9471 5.44772 10.499 6 10.499C6.55228 10.499 7 10.9471 7 11.4998Z" fill="#8F98A8"/>
<path d="M6 15.4998C6.55228 15.4998 7 15.0517 7 14.499C7 13.9463 6.55228 13.4982 6 13.4982C5.44772 13.4982 5 13.9463 5 14.499C5 15.0517 5.44772 15.4998 6 15.4998Z" fill="#8F98A8"/>
<path d="M11 8.49979C11 9.05249 10.5523 9.50055 10 9.50055C9.44772 9.50055 9 9.05249 9 8.49979C9 7.94708 9.44772 7.49902 10 7.49902C10.5523 7.49902 11 7.94708 11 8.49979Z" fill="#8F98A8"/>
<path d="M10 12.5006C10.5523 12.5006 11 12.0525 11 11.4998C11 10.9471 10.5523 10.499 10 10.499C9.44772 10.499 9 10.9471 9 11.4998C9 12.0525 9.44772 12.5006 10 12.5006Z" fill="#8F98A8"/>
<path d="M11 14.499C11 15.0517 10.5523 15.4998 10 15.4998C9.44772 15.4998 9 15.0517 9 14.499C9 13.9463 9.44772 13.4982 10 13.4982C10.5523 13.4982 11 13.9463 11 14.499Z" fill="#8F98A8"/>
<path d="M14 9.50055C14.5523 9.50055 15 9.05249 15 8.49979C15 7.94708 14.5523 7.49902 14 7.49902C13.4477 7.49902 13 7.94708 13 8.49979C13 9.05249 13.4477 9.50055 14 9.50055Z" fill="#8F98A8"/>
<path d="M15 11.4998C15 12.0525 14.5523 12.5006 14 12.5006C13.4477 12.5006 13 12.0525 13 11.4998C13 10.9471 13.4477 10.499 14 10.499C14.5523 10.499 15 10.9471 15 11.4998Z" fill="#8F98A8"/>
<path d="M14 15.4998C14.5523 15.4998 15 15.0517 15 14.499C15 13.9463 14.5523 13.4982 14 13.4982C13.4477 13.4982 13 13.9463 13 14.499C13 15.0517 13.4477 15.4998 14 15.4998Z" fill="#8F98A8"/>
</g>
</g>
</svg>
