<svg width="20" height="21" viewBox="0 0 20 21" fill="none" xmlns="http://www.w3.org/2000/svg">
<g id="icons / call">
<path id="Vector (Stroke)" fill-rule="evenodd" clip-rule="evenodd" d="M6.43471 2.51764C6.62965 2.55096 6.88465 2.6497 7.06701 2.89885L8.68615 5.111C9.01848 5.56506 9.0889 6.15994 8.87176 6.67904L8.1509 8.40234C8.13547 8.43923 8.14484 8.46619 8.15268 8.47732C8.60966 9.12641 9.18073 9.81864 9.89957 10.5406C9.91081 10.5505 9.92183 10.5609 9.9326 10.5717C10.6646 11.3038 11.3663 11.8837 12.0238 12.3467C12.0349 12.3545 12.0619 12.3639 12.0988 12.3484L13.8218 11.6276C14.3409 11.4105 14.9359 11.4809 15.3899 11.8133L17.6019 13.4324C17.851 13.6148 17.9497 13.8698 17.983 14.0647C18.0149 14.2509 17.997 14.4276 17.9728 14.5625C17.9239 14.8344 17.8135 15.1211 17.7046 15.3639C17.4821 15.8599 17.1796 16.36 17.0328 16.5777L16.9263 16.7357L16.9195 16.7458C16.6224 17.1866 16.1771 17.8474 15.4458 18.1749C14.1812 18.7412 12.5489 18.5208 10.9499 17.8646C9.34398 17.2056 7.63521 16.0549 6.08421 14.5195C6.07136 14.5083 6.0588 14.4965 6.04655 14.4843C4.47772 12.9154 3.30321 11.1804 2.63473 9.55118C1.97858 7.95204 1.75813 6.31964 2.32449 5.05499C2.65201 4.32364 3.31273 3.87831 3.75355 3.58119C3.75693 3.57891 3.7603 3.57664 3.76365 3.57438L3.92164 3.46788C4.13938 3.3211 4.63943 3.01853 5.13551 2.79602C5.37829 2.68712 5.66494 2.57672 5.93685 2.52787C6.07179 2.50363 6.24854 2.48581 6.43471 2.51764ZM7.04568 13.3618C7.05664 13.3715 7.06739 13.3817 7.07791 13.3922C8.52872 14.8431 10.1015 15.8951 11.5193 16.4769C12.9672 17.071 14.121 17.1247 14.8326 16.8059C15.1208 16.6769 15.3518 16.388 15.6825 15.8973L15.789 15.7393C15.8992 15.5758 16.1561 15.1512 16.336 14.7499C16.3883 14.6335 16.4275 14.5332 16.4546 14.4516L14.5039 13.0237C14.474 13.0018 14.4349 12.9971 14.4007 13.0114L12.6777 13.7322C12.1895 13.9365 11.6145 13.893 11.1602 13.5731C10.4397 13.0658 9.68209 12.4393 8.90108 11.6614C8.88949 11.6512 8.87814 11.6405 8.86705 11.6294C8.07564 10.838 7.43985 10.0705 6.92617 9.34084C6.60637 8.8866 6.56289 8.31165 6.76709 7.82349L7.48795 6.10019C7.50225 6.06601 7.49761 6.02684 7.47573 5.99694L6.04779 4.04602C5.9661 4.0732 5.86587 4.1124 5.7494 4.16464C5.34818 4.34461 4.92352 4.6015 4.76007 4.71168L4.60208 4.81818C4.11144 5.14891 3.82254 5.37988 3.69347 5.66808C3.37471 6.37986 3.42832 7.53377 4.02246 8.98178C4.59601 10.3796 5.6265 11.9281 7.04568 13.3618Z" fill="#8F98A8"/>
</g>
</svg>
