<svg width="20" height="21" viewBox="0 0 20 21" fill="none" xmlns="http://www.w3.org/2000/svg">
<g id="icons / check-circle">
<path id="Vector" d="M12.2665 7.82484L8.69151 11.4082L7.31651 10.0332C7.2418 9.94594 7.14987 9.87509 7.04648 9.82507C6.94309 9.77505 6.83048 9.74694 6.71572 9.74251C6.60095 9.73807 6.48651 9.75741 6.37957 9.79931C6.27263 9.8412 6.17551 9.90475 6.0943 9.98596C6.01309 10.0672 5.94954 10.1643 5.90764 10.2712C5.86575 10.3782 5.84641 10.4926 5.85084 10.6074C5.85528 10.7221 5.88338 10.8348 5.9334 10.9381C5.98342 11.0415 6.05427 11.1335 6.14151 11.2082L8.09984 13.1748C8.17771 13.2521 8.27005 13.3132 8.37159 13.3546C8.47312 13.3961 8.58184 13.4171 8.69151 13.4165C8.91012 13.4156 9.11962 13.3288 9.27484 13.1748L13.4415 9.00817C13.5196 8.9307 13.5816 8.83853 13.6239 8.73698C13.6662 8.63544 13.688 8.52651 13.688 8.4165C13.688 8.30649 13.6662 8.19757 13.6239 8.09602C13.5816 7.99447 13.5196 7.90231 13.4415 7.82484C13.2854 7.66963 13.0742 7.58251 12.854 7.58251C12.6339 7.58251 12.4226 7.66963 12.2665 7.82484ZM9.99984 2.1665C8.35166 2.1665 6.7405 2.65525 5.37009 3.57092C3.99968 4.4866 2.93158 5.78809 2.30084 7.31081C1.67011 8.83353 1.50509 10.5091 1.82663 12.1256C2.14817 13.7421 2.94185 15.227 4.10728 16.3924C5.27272 17.5578 6.75758 18.3515 8.37409 18.673C9.9906 18.9946 11.6662 18.8296 13.1889 18.1988C14.7116 17.5681 16.0131 16.5 16.9288 15.1296C17.8444 13.7592 18.3332 12.148 18.3332 10.4998C18.3332 9.40549 18.1176 8.32186 17.6988 7.31081C17.28 6.29976 16.6662 5.3811 15.8924 4.60728C15.1186 3.83346 14.1999 3.21963 13.1889 2.80084C12.1778 2.38205 11.0942 2.1665 9.99984 2.1665ZM9.99984 17.1665C8.6813 17.1665 7.39237 16.7755 6.29604 16.043C5.19971 15.3104 4.34523 14.2692 3.84064 13.0511C3.33606 11.8329 3.20404 10.4924 3.46127 9.19924C3.71851 7.90603 4.35345 6.71814 5.2858 5.78579C6.21815 4.85344 7.40603 4.2185 8.69924 3.96127C9.99245 3.70403 11.3329 3.83606 12.5511 4.34064C13.7692 4.84522 14.8104 5.69971 15.543 6.79604C16.2755 7.89236 16.6665 9.1813 16.6665 10.4998C16.6665 12.2679 15.9641 13.9636 14.7139 15.2139C13.4636 16.4641 11.768 17.1665 9.99984 17.1665Z" fill="#67C1C2"/>
</g>
</svg>
