<svg width="21" height="21" viewBox="0 0 21 21" fill="none" xmlns="http://www.w3.org/2000/svg">
<path d="M15.7367 6.86032L15.7445 6.8682L15.7527 6.87572C15.7865 6.90693 15.8135 6.94482 15.832 6.98698C15.8504 7.02915 15.86 7.07468 15.86 7.12072C15.86 7.16675 15.8504 7.21229 15.832 7.25445C15.8135 7.29662 15.7865 7.3345 15.7527 7.36572L15.7453 7.37254L15.7382 7.37966L8.93815 14.1797L8.93815 14.1797L8.93671 14.1811C8.90572 14.2124 8.86885 14.2372 8.82823 14.2541C8.78761 14.271 8.74404 14.2797 8.70004 14.2797C8.65604 14.2797 8.61247 14.271 8.57185 14.2541C8.53123 14.2372 8.49436 14.2124 8.46337 14.1811L8.46193 14.1797L5.26193 10.9797L5.26198 10.9796L5.25576 10.9736C5.22255 10.9415 5.19598 10.9032 5.17758 10.8609C5.15917 10.8185 5.14929 10.773 5.14849 10.7268C5.14769 10.6806 5.15599 10.6348 5.17292 10.5918L4.70774 10.4085L5.17292 10.5918C5.18985 10.5488 5.21508 10.5096 5.24716 10.4764C5.27924 10.4432 5.31754 10.4167 5.35989 10.3983L5.16311 9.94551L5.35989 10.3983C5.40223 10.3799 5.44779 10.37 5.49396 10.3692C5.54012 10.3684 5.586 10.3767 5.62895 10.3936L5.81227 9.92842L5.62895 10.3936C5.67076 10.4101 5.70902 10.4344 5.74165 10.4653L8.34592 13.0779L8.69971 13.4328L9.05383 13.0782L15.2622 6.86154L15.2634 6.86032C15.2944 6.82907 15.3312 6.80428 15.3718 6.78735C15.4125 6.77043 15.456 6.76172 15.5 6.76172C15.544 6.76172 15.5876 6.77043 15.6282 6.78735C15.6688 6.80428 15.7057 6.82907 15.7367 6.86032Z" stroke="#8F98A8"/>
</svg>
