<svg width="21" height="21" viewBox="0 0 21 21" fill="none" xmlns="http://www.w3.org/2000/svg">
<path d="M10.5003 2.1665C8.85215 2.1665 7.24099 2.65525 5.87058 3.57092C4.50017 4.4866 3.43206 5.78809 2.80133 7.31081C2.1706 8.83353 2.00558 10.5091 2.32712 12.1256C2.64866 13.7421 3.44234 15.227 4.60777 16.3924C5.77321 17.5578 7.25807 18.3515 8.87458 18.673C10.4911 18.9946 12.1666 18.8296 13.6894 18.1988C15.2121 17.5681 16.5136 16.5 17.4292 15.1296C18.3449 13.7592 18.8337 12.148 18.8337 10.4998C18.8337 9.40549 18.6181 8.32186 18.1993 7.31081C17.7805 6.29976 17.1667 5.3811 16.3929 4.60728C15.6191 3.83346 14.7004 3.21963 13.6894 2.80084C12.6783 2.38205 11.5947 2.1665 10.5003 2.1665ZM10.5003 17.1665C9.18179 17.1665 7.89286 16.7755 6.79653 16.043C5.7002 15.3104 4.84572 14.2692 4.34113 13.0511C3.83655 11.8329 3.70453 10.4924 3.96176 9.19924C4.219 7.90603 4.85393 6.71814 5.78628 5.78579C6.71863 4.85344 7.90652 4.2185 9.19973 3.96127C10.4929 3.70403 11.8334 3.83606 13.0516 4.34064C14.2697 4.84522 15.3109 5.69971 16.0435 6.79604C16.776 7.89236 17.167 9.1813 17.167 10.4998C17.167 12.2679 16.4646 13.9636 15.2144 15.2139C13.9641 16.4641 12.2684 17.1665 10.5003 17.1665ZM10.5003 5.49984C10.2793 5.49984 10.0674 5.58764 9.91107 5.74392C9.75479 5.9002 9.667 6.11216 9.667 6.33317V10.0165L7.917 11.0248C7.75646 11.1158 7.63066 11.2575 7.55931 11.4277C7.48797 11.5978 7.47512 11.7869 7.52278 11.9651C7.57045 12.1434 7.67592 12.3008 7.82267 12.4126C7.96942 12.5245 8.14915 12.5845 8.33366 12.5832C8.47964 12.5842 8.62333 12.5468 8.75033 12.4748L10.917 11.2248L10.992 11.1498L11.1253 11.0415C11.1579 11.0003 11.1859 10.9555 11.2087 10.9082C11.2358 10.8634 11.2582 10.8159 11.2753 10.7665C11.298 10.7135 11.3121 10.6573 11.317 10.5998L11.3337 10.4998V6.33317C11.3337 6.11216 11.2459 5.9002 11.0896 5.74392C10.9333 5.58764 10.7213 5.49984 10.5003 5.49984Z" fill="#6F4F1F"/>
</svg>
