<svg width="21" height="20" viewBox="0 0 21 20" fill="none" xmlns="http://www.w3.org/2000/svg">
<g id="icons / clock">
<path id="Vector" d="M9.91613 9.94973L10.1665 9.80547V9.5165V5.83317C10.1665 5.74477 10.2016 5.65998 10.2641 5.59747C10.3267 5.53496 10.4114 5.49984 10.4998 5.49984C10.5882 5.49984 10.673 5.53496 10.7355 5.59747C10.7981 5.65998 10.8332 5.74477 10.8332 5.83317V9.95845L10.8233 10.0176L10.82 10.0372L10.8183 10.057C10.818 10.0615 10.8169 10.0658 10.8151 10.0698L10.8082 10.086L10.8025 10.1026C10.7969 10.1187 10.7896 10.1341 10.7808 10.1487L10.7682 10.1694L10.7577 10.1913C10.7565 10.1937 10.7552 10.1962 10.754 10.1986L10.6762 10.2618L10.6562 10.278L10.638 10.2963L10.6096 10.3247L8.50199 11.5406C8.45151 11.5689 8.39452 11.5836 8.33663 11.5832V11.5831L8.32968 11.5832C8.25587 11.5837 8.18398 11.5597 8.12528 11.515C8.06658 11.4702 8.02439 11.4073 8.00533 11.336C7.98626 11.2647 7.9914 11.189 8.01994 11.121C8.04848 11.0529 8.0988 10.9962 8.16301 10.9598L8.16302 10.9599L8.16613 10.9581L9.91613 9.94973ZM6.14787 3.48666C7.43606 2.62592 8.95055 2.1665 10.4998 2.1665C11.5285 2.1665 12.5471 2.36912 13.4975 2.76278C14.4479 3.15644 15.3115 3.73344 16.0388 4.46083C16.7662 5.18823 17.3432 6.05177 17.7369 7.00215C18.1306 7.95253 18.3332 8.97115 18.3332 9.99984C18.3332 11.5491 17.8738 13.0636 17.013 14.3518C16.1523 15.64 14.9289 16.644 13.4975 17.2369C12.0662 17.8298 10.4912 17.9849 8.97163 17.6827C7.45212 17.3804 6.05635 16.6344 4.96084 15.5388C3.86533 14.4433 3.11927 13.0476 2.81702 11.528C2.51477 10.0085 2.6699 8.4335 3.26278 7.00215C3.85567 5.5708 4.85969 4.3474 6.14787 3.48666ZM6.51825 15.9587C7.69681 16.7462 9.08241 17.1665 10.4998 17.1665C12.4006 17.1665 14.2234 16.4114 15.5674 15.0674C16.9115 13.7234 17.6665 11.9006 17.6665 9.99984C17.6665 8.5824 17.2462 7.1968 16.4587 6.01825C15.6712 4.8397 14.5519 3.92113 13.2424 3.3787C11.9329 2.83627 10.4919 2.69435 9.10169 2.97088C7.7115 3.2474 6.43452 3.92996 5.43224 4.93224C4.42997 5.93452 3.74741 7.21149 3.47088 8.60169C3.19435 9.99189 3.33628 11.4329 3.8787 12.7424C4.42113 14.0519 5.3397 15.1712 6.51825 15.9587Z" stroke="#6F4F1F"/>
</g>
</svg>
