<svg width="20" height="20" viewBox="0 0 20 20" fill="none" xmlns="http://www.w3.org/2000/svg">
<g id="icons / clock">
<path id="Vector" d="M10.0003 1.6665C8.35215 1.6665 6.74099 2.15525 5.37058 3.07092C4.00017 3.9866 2.93206 5.28809 2.30133 6.81081C1.6706 8.33353 1.50558 10.0091 1.82712 11.6256C2.14866 13.2421 2.94234 14.727 4.10777 15.8924C5.27321 17.0578 6.75807 17.8515 8.37458 18.173C9.99109 18.4946 11.6666 18.3296 13.1894 17.6988C14.7121 17.0681 16.0136 16 16.9292 14.6296C17.8449 13.2592 18.3337 11.648 18.3337 9.99984C18.3337 8.90549 18.1181 7.82186 17.6993 6.81081C17.2805 5.79976 16.6667 4.8811 15.8929 4.10728C15.1191 3.33346 14.2004 2.71963 13.1894 2.30084C12.1783 1.88205 11.0947 1.6665 10.0003 1.6665ZM10.0003 16.6665C8.68179 16.6665 7.39286 16.2755 6.29653 15.543C5.2002 14.8104 4.34572 13.7692 3.84113 12.5511C3.33655 11.3329 3.20453 9.99244 3.46176 8.69924C3.719 7.40603 4.35393 6.21814 5.28628 5.28579C6.21863 4.35344 7.40652 3.7185 8.69973 3.46127C9.99293 3.20403 11.3334 3.33606 12.5516 3.84064C13.7697 4.34522 14.8109 5.19971 15.5435 6.29604C16.276 7.39236 16.667 8.6813 16.667 9.99984C16.667 11.7679 15.9646 13.4636 14.7144 14.7139C13.4641 15.9641 11.7684 16.6665 10.0003 16.6665ZM10.0003 4.99984C9.77932 4.99984 9.56735 5.08764 9.41107 5.24392C9.25479 5.4002 9.167 5.61216 9.167 5.83317V9.5165L7.417 10.5248C7.25646 10.6158 7.13066 10.7575 7.05931 10.9277C6.98797 11.0978 6.97512 11.2869 7.02278 11.4651C7.07045 11.6434 7.17592 11.8008 7.32267 11.9126C7.46942 12.0245 7.64915 12.0845 7.83366 12.0832C7.97964 12.0842 8.12333 12.0468 8.25033 11.9748L10.417 10.7248L10.492 10.6498L10.6253 10.5415C10.6579 10.5003 10.6859 10.4555 10.7087 10.4082C10.7358 10.3634 10.7582 10.3159 10.7753 10.2665C10.798 10.2135 10.8121 10.1573 10.817 10.0998L10.8337 9.99984V5.83317C10.8337 5.61216 10.7459 5.4002 10.5896 5.24392C10.4333 5.08764 10.2213 4.99984 10.0003 4.99984Z" fill="#8F98A8"/>
</g>
</svg>
