<svg width="20" height="21" viewBox="0 0 20 21" fill="none" xmlns="http://www.w3.org/2000/svg">
<g id="icons / close-circle">
<path id="Vector" d="M9.99984 2.1665C8.35166 2.1665 6.7405 2.65525 5.37009 3.57092C3.99968 4.4866 2.93158 5.78809 2.30084 7.31081C1.67011 8.83353 1.50509 10.5091 1.82663 12.1256C2.14817 13.7421 2.94185 15.227 4.10728 16.3924C5.27272 17.5578 6.75758 18.3515 8.37409 18.673C9.9906 18.9946 11.6662 18.8296 13.1889 18.1988C14.7116 17.5681 16.0131 16.5 16.9288 15.1296C17.8444 13.7592 18.3332 12.148 18.3332 10.4998C18.3332 9.40549 18.1176 8.32186 17.6988 7.31081C17.28 6.29976 16.6662 5.3811 15.8924 4.60728C15.1186 3.83346 14.1999 3.21963 13.1889 2.80084C12.1778 2.38205 11.0942 2.1665 9.99984 2.1665ZM9.99984 17.1665C8.6813 17.1665 7.39237 16.7755 6.29604 16.043C5.19971 15.3104 4.34523 14.2692 3.84064 13.0511C3.33606 11.8329 3.20404 10.4924 3.46127 9.19924C3.71851 7.90603 4.35345 6.71814 5.2858 5.78579C6.21815 4.85344 7.40603 4.2185 8.69924 3.96127C9.99245 3.70403 11.3329 3.83606 12.5511 4.34064C13.7692 4.84522 14.8104 5.69971 15.543 6.79604C16.2755 7.89236 16.6665 9.1813 16.6665 10.4998C16.6665 12.2679 15.9641 13.9636 14.7139 15.2139C13.4636 16.4641 11.768 17.1665 9.99984 17.1665Z" fill="#F380A5"/>
<path id="Vector_2" d="M9.99998 9.32149L11.7677 7.55372C11.924 7.39744 12.136 7.30964 12.357 7.30964C12.578 7.30964 12.79 7.39744 12.9463 7.55372C13.1025 7.71 13.1903 7.92196 13.1903 8.14298C13.1903 8.36399 13.1025 8.57595 12.9463 8.73223L11.1785 10.5L12.9463 12.2678C13.1025 12.424 13.1903 12.636 13.1903 12.857C13.1903 13.078 13.1025 13.29 12.9463 13.4463C12.79 13.6026 12.578 13.6904 12.357 13.6904C12.136 13.6904 11.924 13.6026 11.7677 13.4463L9.99998 11.6785L8.23221 13.4463C8.07593 13.6026 7.86397 13.6904 7.64296 13.6904C7.42194 13.6904 7.20998 13.6026 7.0537 13.4463C6.89742 13.29 6.80962 13.078 6.80962 12.857C6.80962 12.636 6.89742 12.424 7.0537 12.2678L8.82147 10.5L7.0537 8.73223C6.89742 8.57595 6.80962 8.36399 6.80962 8.14298C6.80962 7.92196 6.89742 7.71 7.0537 7.55372C7.20998 7.39744 7.42194 7.30964 7.64296 7.30964C7.86397 7.30964 8.07593 7.39744 8.23221 7.55372L9.99998 9.32149Z" fill="#F380A5"/>
</g>
</svg>
