<svg width="26" height="26" viewBox="0 0 26 26" fill="none" xmlns="http://www.w3.org/2000/svg">
<g filter="url(#filter0_d_3038_3327)">
<path d="M12.8221 15.4627L12.8115 15.458L12.8008 15.4538C12.7408 15.4306 12.6859 15.396 12.639 15.3519L8.64355 11.3564C8.59674 11.3096 8.55961 11.2541 8.53428 11.1929C8.50895 11.1317 8.49591 11.0662 8.49591 11C8.49591 10.9338 8.50895 10.8683 8.53428 10.8071C8.55961 10.7459 8.59674 10.6904 8.64355 10.6436C8.69036 10.5967 8.74593 10.5596 8.80709 10.5343C8.86825 10.5089 8.9338 10.4959 9 10.4959C9.0662 10.4959 9.13175 10.5089 9.19291 10.5343C9.25394 10.5596 9.30941 10.5966 9.35616 10.6433C9.35626 10.6434 9.35635 10.6435 9.35645 10.6436L11.6457 12.9428L12.5 13.8008V12.59V3C12.5 2.86739 12.5527 2.74021 12.6464 2.64645C12.7402 2.55268 12.8674 2.5 13 2.5C13.1326 2.5 13.2598 2.55268 13.3536 2.64645C13.4473 2.74021 13.5 2.86739 13.5 3V12.59V13.8008L14.3543 12.9428L16.6436 10.6436C16.6436 10.6435 16.6436 10.6435 16.6437 10.6434C16.7382 10.549 16.8664 10.4959 17 10.4959C17.1337 10.4959 17.2619 10.549 17.3564 10.6436C17.451 10.7381 17.5041 10.8663 17.5041 11C17.5041 11.1337 17.451 11.2619 17.3564 11.3564L13.361 15.3519C13.3141 15.396 13.2592 15.4306 13.1992 15.4538L13.1885 15.458L13.1779 15.4627C13.1218 15.4874 13.0613 15.5002 13 15.5002C12.9387 15.5002 12.8782 15.4874 12.8221 15.4627ZM21.6464 14.6464C21.7402 14.5527 21.8674 14.5 22 14.5C22.1326 14.5 22.2598 14.5527 22.3536 14.6464C22.4473 14.7402 22.5 14.8674 22.5 15V19C22.5 19.663 22.2366 20.2989 21.7678 20.7678C21.2989 21.2366 20.663 21.5 20 21.5H6C5.33696 21.5 4.70107 21.2366 4.23223 20.7678C3.76339 20.2989 3.5 19.663 3.5 19V15C3.5 14.8674 3.55268 14.7402 3.64645 14.6464C3.74021 14.5527 3.86739 14.5 4 14.5C4.13261 14.5 4.25979 14.5527 4.35355 14.6464C4.44732 14.7402 4.5 14.8674 4.5 15V19C4.5 19.3978 4.65804 19.7794 4.93934 20.0607C5.22065 20.342 5.60218 20.5 6 20.5H20C20.3978 20.5 20.7794 20.342 21.0607 20.0607C21.342 19.7794 21.5 19.3978 21.5 19V15C21.5 14.8674 21.5527 14.7402 21.6464 14.6464Z" fill="#070707" stroke="#070707"/>
</g>
<defs>
<filter id="filter0_d_3038_3327" x="-2" y="-2" width="30" height="30" filterUnits="userSpaceOnUse" color-interpolation-filters="sRGB">
<feFlood flood-opacity="0" result="BackgroundImageFix"/>
<feColorMatrix in="SourceAlpha" type="matrix" values="0 0 0 0 0 0 0 0 0 0 0 0 0 0 0 0 0 0 127 0" result="hardAlpha"/>
<feOffset dy="1"/>
<feGaussianBlur stdDeviation="1.5"/>
<feComposite in2="hardAlpha" operator="out"/>
<feColorMatrix type="matrix" values="0 0 0 0 0 0 0 0 0 0 0 0 0 0 0 0 0 0 0.08 0"/>
<feBlend mode="normal" in2="BackgroundImageFix" result="effect1_dropShadow_3038_3327"/>
<feBlend mode="normal" in="SourceGraphic" in2="effect1_dropShadow_3038_3327" result="shape"/>
</filter>
</defs>
</svg>
