<svg width="20" height="20" viewBox="0 0 20 20" fill="none" xmlns="http://www.w3.org/2000/svg">
<path fill-rule="evenodd" clip-rule="evenodd" d="M12.2425 1.75866C11.857 1.66609 11.4571 1.66628 10.928 1.66653L8.13217 1.66656C7.46136 1.66655 6.90773 1.66654 6.45673 1.70338C5.98832 1.74166 5.55773 1.82379 5.15328 2.02987C4.52608 2.34945 4.01614 2.85938 3.69656 3.48659C3.49049 3.89103 3.40835 4.32162 3.37008 4.79004C3.33323 5.24103 3.33324 5.79466 3.33325 6.46546V13.5343C3.33324 14.2051 3.33323 14.7588 3.37008 15.2097C3.40835 15.6782 3.49049 16.1087 3.69656 16.5132C4.01614 17.1404 4.52608 17.6503 5.15328 17.9699C5.55773 18.176 5.98832 18.2581 6.45673 18.2964C6.90772 18.3332 7.46135 18.3332 8.13215 18.3332H11.8677C12.5385 18.3332 13.0921 18.3332 13.5431 18.2964C14.0115 18.2581 14.4421 18.176 14.8466 17.9699C15.4738 17.6503 15.9837 17.1404 16.3033 16.5132C16.5094 16.1087 16.5915 15.6782 16.6298 15.2097C16.6666 14.7587 16.6666 14.2051 16.6666 13.5343L16.6666 7.40518C16.6669 6.87602 16.6671 6.47618 16.5745 6.09061C16.4928 5.75049 16.3581 5.42534 16.1754 5.1271C15.9682 4.78899 15.6853 4.50641 15.311 4.13241L14.2007 3.02215C13.8267 2.6478 13.5441 2.36494 13.206 2.15776C12.9078 1.97499 12.5827 1.84031 12.2425 1.75866ZM10.8333 3.33322H8.16659C7.45277 3.33322 6.96753 3.33387 6.59245 3.36452C6.22711 3.39437 6.04027 3.44847 5.90994 3.51488C5.59633 3.67467 5.34136 3.92964 5.18158 4.24324C5.11517 4.37357 5.06106 4.56041 5.03121 4.92575C5.00057 5.30083 4.99992 5.78607 4.99992 6.49989V13.4999C4.99992 14.2137 5.00057 14.699 5.03121 15.074C5.06106 15.4394 5.11517 15.6262 5.18158 15.7565C5.34136 16.0701 5.59633 16.3251 5.90994 16.4849C6.04027 16.5513 6.22711 16.6054 6.59245 16.6353C6.96753 16.6659 7.45277 16.6666 8.16659 16.6666H11.8333C12.5471 16.6666 13.0323 16.6659 13.4074 16.6353C13.7727 16.6054 13.9596 16.5513 14.0899 16.4849C14.4035 16.3251 14.6585 16.0701 14.8183 15.7565C14.8847 15.6262 14.9388 15.4394 14.9686 15.074C14.9993 14.699 14.9999 14.2137 14.9999 13.4999V7.49984H13.3333C11.9525 7.49984 10.8333 6.38055 10.8333 4.99984V3.33322ZM14.6332 5.83317C14.533 5.71475 14.3731 5.5516 14.0724 5.25091L13.0822 4.26072C12.7815 3.95998 12.6183 3.80005 12.4999 3.69991V4.99984C12.4999 5.46007 12.873 5.83317 13.3333 5.83317H14.6332Z" fill="#6983E6"/>
<path d="M8.33341 10.8333C8.33341 11.2936 7.96032 11.6667 7.50008 11.6667C7.03984 11.6667 6.66675 11.2936 6.66675 10.8333C6.66675 10.3731 7.03984 10 7.50008 10C7.96032 10 8.33341 10.3731 8.33341 10.8333Z" fill="#6983E6"/>
<path d="M10.8334 10C10.3732 10 10.0001 10.3731 10.0001 10.8333C10.0001 11.2936 10.3732 11.6667 10.8334 11.6667H12.5001C12.9603 11.6667 13.3334 11.2936 13.3334 10.8333C13.3334 10.3731 12.9603 10 12.5001 10H10.8334Z" fill="#6983E6"/>
<path d="M10.8334 13.3333C10.3732 13.3333 10.0001 13.7064 10.0001 14.1667C10.0001 14.6269 10.3732 15 10.8334 15H12.5001C12.9603 15 13.3334 14.6269 13.3334 14.1667C13.3334 13.7064 12.9603 13.3333 12.5001 13.3333H10.8334Z" fill="#6983E6"/>
<path d="M7.50008 15C7.96032 15 8.33341 14.6269 8.33341 14.1667C8.33341 13.7064 7.96032 13.3333 7.50008 13.3333C7.03984 13.3333 6.66675 13.7064 6.66675 14.1667C6.66675 14.6269 7.03984 15 7.50008 15Z" fill="#6983E6"/>
</svg>
