<svg width="20" height="21" viewBox="0 0 20 21" fill="none" xmlns="http://www.w3.org/2000/svg">
<rect y="0.5" width="20" height="20" rx="10" fill="#D5FEFF"/>
<path d="M15.5917 6.50822C15.5142 6.43011 15.4221 6.36811 15.3205 6.32581C15.219 6.2835 15.11 6.26172 15 6.26172C14.89 6.26172 14.7811 6.2835 14.6796 6.32581C14.578 6.36811 14.4858 6.43011 14.4084 6.50822L8.20004 12.7249L5.59171 10.1082C5.51127 10.0305 5.41632 9.96942 5.31227 9.92842C5.20823 9.88742 5.09713 9.86731 4.98531 9.86924C4.87349 9.87118 4.76315 9.89512 4.66058 9.93969C4.55802 9.98427 4.46524 10.0486 4.38754 10.1291C4.30984 10.2095 4.24875 10.3044 4.20774 10.4085C4.16674 10.5125 4.14663 10.6236 4.14856 10.7354C4.1505 10.8473 4.17444 10.9576 4.21902 11.0602C4.2636 11.1627 4.32794 11.2555 4.40837 11.3332L7.60837 14.5332C7.68584 14.6113 7.77801 14.6733 7.87956 14.7156C7.98111 14.7579 8.09003 14.7797 8.20004 14.7797C8.31005 14.7797 8.41897 14.7579 8.52052 14.7156C8.62207 14.6733 8.71424 14.6113 8.79171 14.5332L15.5917 7.73322C15.6763 7.65518 15.7438 7.56047 15.79 7.45506C15.8361 7.34964 15.86 7.2358 15.86 7.12072C15.86 7.00563 15.8361 6.89179 15.79 6.78638C15.7438 6.68096 15.6763 6.58625 15.5917 6.50822Z" fill="#67C1C2"/>
</svg>
