<svg width="20" height="20" viewBox="0 0 20 20" fill="none" xmlns="http://www.w3.org/2000/svg">
<g id="icons / info-circle">
<path id="Vector" d="M9.99935 1.6665C5.39685 1.6665 1.66602 5.39734 1.66602 9.99984C1.66602 14.6023 5.39685 18.3332 9.99935 18.3332C14.6018 18.3332 18.3327 14.6023 18.3327 9.99984C18.3327 5.39734 14.6018 1.6665 9.99935 1.6665ZM9.99935 3.33317C13.681 3.33317 16.666 6.31817 16.666 9.99984C16.666 13.6815 13.681 16.6665 9.99935 16.6665C6.31768 16.6665 3.33268 13.6815 3.33268 9.99984C3.33268 6.31817 6.31768 3.33317 9.99935 3.33317Z" fill="#9B3858"/>
<path id="Vector_2" d="M10.0002 5.8335C9.54016 5.8335 9.16683 6.20683 9.16683 6.66683C9.16683 7.12683 9.54016 7.50016 10.0002 7.50016C10.4602 7.50016 10.8335 7.12683 10.8335 6.66683C10.8335 6.20683 10.4602 5.8335 10.0002 5.8335ZM9.16683 8.3335C8.70683 8.3335 8.3335 8.70683 8.3335 9.16683C8.3335 9.5685 8.63267 9.86849 9.01017 9.94849L8.51599 12.3435C8.32266 13.311 9.01433 14.1668 10.0002 14.1668H10.8335C11.2935 14.1668 11.6668 13.7935 11.6668 13.3335C11.6668 12.8735 11.2935 12.5002 10.8335 12.5002H10.1827L10.8077 9.32349C10.911 8.80765 10.526 8.3335 10.0002 8.3335C9.89516 8.3335 9.30183 8.3335 9.16683 8.3335Z" fill="#9B3858"/>
</g>
</svg>
