<svg width="16" height="16" viewBox="0 0 16 16" fill="none" xmlns="http://www.w3.org/2000/svg">
<path d="M7.9987 1.33337C4.3167 1.33337 1.33203 4.31804 1.33203 8.00004C1.33203 11.682 4.3167 14.6667 7.9987 14.6667C11.6807 14.6667 14.6654 11.682 14.6654 8.00004C14.6654 4.31804 11.6807 1.33337 7.9987 1.33337ZM7.9987 2.66671C10.944 2.66671 13.332 5.05471 13.332 8.00004C13.332 10.9454 10.944 13.3334 7.9987 13.3334C5.05336 13.3334 2.66536 10.9454 2.66536 8.00004C2.66536 5.05471 5.05336 2.66671 7.9987 2.66671Z" fill="#070707"/>
<path d="M7.99935 4.66663C7.63135 4.66663 7.33268 4.96529 7.33268 5.33329C7.33268 5.70129 7.63135 5.99996 7.99935 5.99996C8.36735 5.99996 8.66602 5.70129 8.66602 5.33329C8.66602 4.96529 8.36735 4.66663 7.99935 4.66663ZM7.33268 6.66663C6.96468 6.66663 6.66602 6.96529 6.66602 7.33329C6.66602 7.65463 6.90536 7.89462 7.20736 7.95862L6.81201 9.87463C6.65735 10.6486 7.21068 11.3333 7.99935 11.3333H8.66602C9.03402 11.3333 9.33268 11.0346 9.33268 10.6666C9.33268 10.2986 9.03402 9.99996 8.66602 9.99996H8.14534L8.64534 7.45862C8.72801 7.04595 8.42002 6.66663 7.99935 6.66663C7.91535 6.66663 7.44068 6.66663 7.33268 6.66663Z" fill="#070707"/>
</svg>
