<svg width="20" height="21" viewBox="0 0 20 21" fill="none" xmlns="http://www.w3.org/2000/svg">
<g id="icons / info-circle">
<path id="Vector" d="M9.99935 2.1665C5.39685 2.1665 1.66602 5.89734 1.66602 10.4998C1.66602 15.1023 5.39685 18.8332 9.99935 18.8332C14.6018 18.8332 18.3327 15.1023 18.3327 10.4998C18.3327 5.89734 14.6018 2.1665 9.99935 2.1665ZM9.99935 3.83317C13.681 3.83317 16.666 6.81817 16.666 10.4998C16.666 14.1815 13.681 17.1665 9.99935 17.1665C6.31768 17.1665 3.33268 14.1815 3.33268 10.4998C3.33268 6.81817 6.31768 3.83317 9.99935 3.83317Z" fill="#8F98A8"/>
<path id="Vector_2" d="M10.0002 6.3335C9.54016 6.3335 9.16683 6.70683 9.16683 7.16683C9.16683 7.62683 9.54016 8.00016 10.0002 8.00016C10.4602 8.00016 10.8335 7.62683 10.8335 7.16683C10.8335 6.70683 10.4602 6.3335 10.0002 6.3335ZM9.16683 8.8335C8.70683 8.8335 8.3335 9.20683 8.3335 9.66683C8.3335 10.0685 8.63267 10.3685 9.01017 10.4485L8.51599 12.8435C8.32266 13.811 9.01433 14.6668 10.0002 14.6668H10.8335C11.2935 14.6668 11.6668 14.2935 11.6668 13.8335C11.6668 13.3735 11.2935 13.0002 10.8335 13.0002H10.1827L10.8077 9.82349C10.911 9.30765 10.526 8.8335 10.0002 8.8335C9.89516 8.8335 9.30183 8.8335 9.16683 8.8335Z" fill="#8F98A8"/>
</g>
</svg>
