<svg width="20" height="20" viewBox="0 0 20 20" fill="none" xmlns="http://www.w3.org/2000/svg">
<path d="M9.99935 1.6665C5.39685 1.6665 1.66602 5.39734 1.66602 9.99984C1.66602 14.6023 5.39685 18.3332 9.99935 18.3332C14.6018 18.3332 18.3327 14.6023 18.3327 9.99984C18.3327 5.39734 14.6018 1.6665 9.99935 1.6665ZM9.99935 3.33317C13.681 3.33317 16.666 6.31817 16.666 9.99984C16.666 13.6815 13.681 16.6665 9.99935 16.6665C6.31768 16.6665 3.33268 13.6815 3.33268 9.99984C3.33268 6.31817 6.31768 3.33317 9.99935 3.33317Z" fill="#9B3858"/>
<path d="M9.99967 5.8335C9.53967 5.8335 9.16634 6.20683 9.16634 6.66683C9.16634 7.12683 9.53967 7.50016 9.99967 7.50016C10.4597 7.50016 10.833 7.12683 10.833 6.66683C10.833 6.20683 10.4597 5.8335 9.99967 5.8335ZM9.16634 8.3335C8.70634 8.3335 8.33301 8.70683 8.33301 9.16683C8.33301 9.5685 8.63218 9.86849 9.00968 9.94849L8.5155 12.3435C8.32217 13.311 9.01384 14.1668 9.99967 14.1668H10.833C11.293 14.1668 11.6663 13.7935 11.6663 13.3335C11.6663 12.8735 11.293 12.5002 10.833 12.5002H10.1822L10.8072 9.32349C10.9105 8.80765 10.5255 8.3335 9.99967 8.3335C9.89467 8.3335 9.30134 8.3335 9.16634 8.3335Z" fill="#9B3858"/>
</svg>
