<svg width="20" height="21" viewBox="0 0 20 21" fill="none" xmlns="http://www.w3.org/2000/svg">
<path d="M9.99992 9.49991C10.3296 9.49991 10.6518 9.40216 10.9259 9.21903C11.2 9.03589 11.4136 8.77559 11.5397 8.47105C11.6659 8.16651 11.6989 7.8314 11.6346 7.50809C11.5703 7.18479 11.4115 6.88782 11.1784 6.65473C10.9453 6.42165 10.6484 6.26291 10.3251 6.1986C10.0018 6.13429 9.66666 6.1673 9.36211 6.29344C9.05757 6.41959 8.79727 6.63321 8.61414 6.90729C8.431 7.18138 8.33325 7.50361 8.33325 7.83324C8.33325 8.27527 8.50885 8.69919 8.82141 9.01175C9.13397 9.32432 9.55789 9.49991 9.99992 9.49991ZM9.40825 15.2582C9.48572 15.3364 9.57789 15.3983 9.67944 15.4407C9.78099 15.483 9.88991 15.5047 9.99992 15.5047C10.1099 15.5047 10.2188 15.483 10.3204 15.4407C10.4219 15.3983 10.5141 15.3364 10.5916 15.2582L13.9999 11.8416C14.7915 11.0504 15.3307 10.0422 15.5493 8.94446C15.7679 7.84677 15.656 6.70892 15.2278 5.67482C14.7996 4.64072 14.0744 3.75684 13.1438 3.13496C12.2133 2.51308 11.1192 2.18115 9.99992 2.18115C8.88068 2.18115 7.78658 2.51308 6.85601 3.13496C5.92544 3.75684 5.2002 4.64072 4.77202 5.67482C4.34384 6.70892 4.23196 7.84677 4.45053 8.94446C4.66909 10.0422 5.20829 11.0504 5.99992 11.8416L9.40825 15.2582ZM6.02492 7.44991C6.08186 6.85576 6.27077 6.28182 6.57786 5.77001C6.88494 5.25819 7.30246 4.82142 7.79992 4.49158C8.45342 4.06249 9.21814 3.83388 9.99992 3.83388C10.7817 3.83388 11.5464 4.06249 12.1999 4.49158C12.6941 4.82029 13.1092 5.25441 13.4155 5.76273C13.7218 6.27105 13.9117 6.84094 13.9715 7.4314C14.0312 8.02186 13.9594 8.61823 13.7612 9.17762C13.5629 9.73701 13.2432 10.2455 12.8249 10.6666L9.99992 13.4916L7.17492 10.6666C6.75619 10.2496 6.43569 9.74452 6.23676 9.18808C6.03782 8.63164 5.96545 8.03784 6.02492 7.44991ZM15.8333 17.1666H4.16659C3.94557 17.1666 3.73361 17.2544 3.57733 17.4107C3.42105 17.5669 3.33325 17.7789 3.33325 17.9999C3.33325 18.2209 3.42105 18.4329 3.57733 18.5892C3.73361 18.7454 3.94557 18.8332 4.16659 18.8332H15.8333C16.0543 18.8332 16.2662 18.7454 16.4225 18.5892C16.5788 18.4329 16.6666 18.2209 16.6666 17.9999C16.6666 17.7789 16.5788 17.5669 16.4225 17.4107C16.2662 17.2544 16.0543 17.1666 15.8333 17.1666Z" fill="#8F98A8"/>
</svg>
