<svg width="20" height="21" viewBox="0 0 20 21" fill="none" xmlns="http://www.w3.org/2000/svg">
<g id="icons / location-pin">
<path id="Vector" d="M10.0002 9.49991C10.3298 9.49991 10.652 9.40216 10.9261 9.21903C11.2002 9.03589 11.4138 8.77559 11.54 8.47105C11.6661 8.16651 11.6991 7.8314 11.6348 7.50809C11.5705 7.18479 11.4118 6.88782 11.1787 6.65473C10.9456 6.42165 10.6486 6.26291 10.3253 6.1986C10.002 6.13429 9.6669 6.1673 9.36236 6.29344C9.05781 6.41959 8.79752 6.63321 8.61438 6.90729C8.43124 7.18138 8.3335 7.50361 8.3335 7.83324C8.3335 8.27527 8.50909 8.69919 8.82165 9.01175C9.13421 9.32432 9.55814 9.49991 10.0002 9.49991ZM9.4085 15.2582C9.48597 15.3364 9.57813 15.3983 9.67968 15.4407C9.78123 15.483 9.89015 15.5047 10.0002 15.5047C10.1102 15.5047 10.2191 15.483 10.3206 15.4407C10.4222 15.3983 10.5144 15.3364 10.5918 15.2582L14.0002 11.8416C14.7918 11.0504 15.331 10.0422 15.5496 8.94446C15.7681 7.84677 15.6562 6.70892 15.2281 5.67482C14.7999 4.64072 14.0746 3.75684 13.1441 3.13496C12.2135 2.51308 11.1194 2.18115 10.0002 2.18115C8.88092 2.18115 7.78683 2.51308 6.85625 3.13496C5.92568 3.75684 5.20044 4.64072 4.77226 5.67482C4.34408 6.70892 4.2322 7.84677 4.45077 8.94446C4.66934 10.0422 5.20853 11.0504 6.00016 11.8416L9.4085 15.2582ZM6.02516 7.44991C6.0821 6.85576 6.27101 6.28182 6.5781 5.77001C6.88519 5.25819 7.3027 4.82142 7.80016 4.49158C8.45367 4.06249 9.21838 3.83388 10.0002 3.83388C10.7819 3.83388 11.5467 4.06249 12.2002 4.49158C12.6943 4.82029 13.1095 5.25441 13.4158 5.76273C13.7221 6.27105 13.912 6.84094 13.9717 7.4314C14.0315 8.02186 13.9597 8.61823 13.7614 9.17762C13.5632 9.73701 13.2434 10.2455 12.8252 10.6666L10.0002 13.4916L7.17516 10.6666C6.75643 10.2496 6.43594 9.74452 6.237 9.18808C6.03807 8.63164 5.9657 8.03784 6.02516 7.44991ZM15.8335 17.1666H4.16683C3.94582 17.1666 3.73385 17.2544 3.57757 17.4107C3.42129 17.5669 3.3335 17.7789 3.3335 17.9999C3.3335 18.2209 3.42129 18.4329 3.57757 18.5892C3.73385 18.7454 3.94582 18.8332 4.16683 18.8332H15.8335C16.0545 18.8332 16.2665 18.7454 16.4228 18.5892C16.579 18.4329 16.6668 18.2209 16.6668 17.9999C16.6668 17.7789 16.579 17.5669 16.4228 17.4107C16.2665 17.2544 16.0545 17.1666 15.8335 17.1666Z" fill="#8F98A8"/>
</g>
</svg>
