<svg width="20" height="21" viewBox="0 0 20 21" fill="none" xmlns="http://www.w3.org/2000/svg">
<path d="M13.6663 7.99984V8.49984H14.1663C14.6968 8.49984 15.2055 8.71055 15.5806 9.08562C15.9556 9.4607 16.1663 9.9694 16.1663 10.4998V16.3332C16.1663 16.8636 15.9556 17.3723 15.5806 17.7474C15.2055 18.1225 14.6968 18.3332 14.1663 18.3332H5.83301C5.30257 18.3332 4.79387 18.1225 4.41879 17.7474C4.04372 17.3723 3.83301 16.8636 3.83301 16.3332V10.4998C3.83301 9.9694 4.04372 9.4607 4.41879 9.08562C4.79387 8.71055 5.30257 8.49984 5.83301 8.49984H6.33301V7.99984V6.33317C6.33301 5.36071 6.71932 4.42808 7.40695 3.74045C8.09458 3.05281 9.02721 2.6665 9.99967 2.6665C10.9721 2.6665 11.9048 3.05281 12.5924 3.74045C13.28 4.42808 13.6663 5.36071 13.6663 6.33317V7.99984ZM12.4997 8.49984H12.9997V7.99984V6.33317C12.9997 5.53752 12.6836 4.77446 12.121 4.21185C11.5584 3.64924 10.7953 3.33317 9.99967 3.33317C9.20402 3.33317 8.44096 3.64924 7.87835 4.21185C7.31574 4.77446 6.99967 5.53752 6.99967 6.33317V7.99984V8.49984H7.49967H12.4997ZM9.76397 11.9308C9.82648 11.8683 9.91127 11.8332 9.99967 11.8332C10.0881 11.8332 10.1729 11.8683 10.2354 11.9308C10.2979 11.9933 10.333 12.0781 10.333 12.1665V14.6665C10.333 14.7549 10.2979 14.8397 10.2354 14.9022C10.1729 14.9647 10.0881 14.9998 9.99967 14.9998C9.91127 14.9998 9.82648 14.9647 9.76397 14.9022C9.70146 14.8397 9.66634 14.7549 9.66634 14.6665V12.1665C9.66634 12.0781 9.70146 11.9933 9.76397 11.9308ZM15.1091 17.276C15.3592 17.0259 15.4997 16.6868 15.4997 16.3332V10.4998C15.4997 10.1462 15.3592 9.80708 15.1092 9.55703C14.8591 9.30698 14.52 9.1665 14.1663 9.1665H5.83301C5.47939 9.1665 5.14025 9.30698 4.8902 9.55703C4.64015 9.80708 4.49967 10.1462 4.49967 10.4998V16.3332C4.49967 16.6868 4.64015 17.0259 4.8902 17.276C5.14025 17.526 5.47939 17.6665 5.83301 17.6665H14.1663C14.52 17.6665 14.8591 17.526 15.1091 17.276Z" stroke="#8F98A8"/>
</svg>
