<svg width="20" height="21" viewBox="0 0 20 21" fill="none" xmlns="http://www.w3.org/2000/svg">
<path d="M15.8337 3.8335H4.16699C3.50395 3.8335 2.86807 4.09689 2.39923 4.56573C1.93038 5.03457 1.66699 5.67045 1.66699 6.3335V14.6668C1.66699 15.3299 1.93038 15.9658 2.39923 16.4346C2.86807 16.9034 3.50395 17.1668 4.16699 17.1668H15.8337C16.4967 17.1668 17.1326 16.9034 17.6014 16.4346C18.0703 15.9658 18.3337 15.3299 18.3337 14.6668V6.3335C18.3337 5.67045 18.0703 5.03457 17.6014 4.56573C17.1326 4.09689 16.4967 3.8335 15.8337 3.8335ZM15.492 5.50016L10.592 10.4002C10.5145 10.4783 10.4224 10.5403 10.3208 10.5826C10.2193 10.6249 10.1103 10.6467 10.0003 10.6467C9.89032 10.6467 9.78139 10.6249 9.67984 10.5826C9.5783 10.5403 9.48613 10.4783 9.40866 10.4002L4.50866 5.50016H15.492ZM16.667 14.6668C16.667 14.8878 16.5792 15.0998 16.4229 15.2561C16.2666 15.4124 16.0547 15.5002 15.8337 15.5002H4.16699C3.94598 15.5002 3.73402 15.4124 3.57774 15.2561C3.42146 15.0998 3.33366 14.8878 3.33366 14.6668V6.67516L8.23366 11.5752C8.70241 12.0433 9.33782 12.3063 10.0003 12.3063C10.6628 12.3063 11.2982 12.0433 11.767 11.5752L16.667 6.67516V14.6668Z" fill="#8F98A8"/>
</svg>
