<svg width="32" height="32" viewBox="0 0 32 32" fill="none" xmlns="http://www.w3.org/2000/svg">
<rect width="32" height="32" rx="16" fill="#F4F6F8"/>
<path d="M14.6667 13.3335H18.6667C18.8435 13.3335 19.013 13.2633 19.1381 13.1382C19.2631 13.0132 19.3333 12.8436 19.3333 12.6668C19.3333 12.49 19.2631 12.3204 19.1381 12.1954C19.013 12.0704 18.8435 12.0002 18.6667 12.0002H14.6667C14.4899 12.0002 14.3203 12.0704 14.1953 12.1954C14.0702 12.3204 14 12.49 14 12.6668C14 12.8436 14.0702 13.0132 14.1953 13.1382C14.3203 13.2633 14.4899 13.3335 14.6667 13.3335ZM13.3333 16.0002H18.6667C18.8435 16.0002 19.013 15.9299 19.1381 15.8049C19.2631 15.6799 19.3333 15.5103 19.3333 15.3335C19.3333 15.1567 19.2631 14.9871 19.1381 14.8621C19.013 14.7371 18.8435 14.6668 18.6667 14.6668H13.3333C13.1565 14.6668 12.987 14.7371 12.8619 14.8621C12.7369 14.9871 12.6667 15.1567 12.6667 15.3335C12.6667 15.5103 12.7369 15.6799 12.8619 15.8049C12.987 15.9299 13.1565 16.0002 13.3333 16.0002ZM13.3333 18.6668H18.6667C18.8435 18.6668 19.013 18.5966 19.1381 18.4716C19.2631 18.3465 19.3333 18.177 19.3333 18.0002C19.3333 17.8234 19.2631 17.6538 19.1381 17.5288C19.013 17.4037 18.8435 17.3335 18.6667 17.3335H13.3333C13.1565 17.3335 12.987 17.4037 12.8619 17.5288C12.7369 17.6538 12.6667 17.8234 12.6667 18.0002C12.6667 18.177 12.7369 18.3465 12.8619 18.4716C12.987 18.5966 13.1565 18.6668 13.3333 18.6668ZM21.3333 9.3335H10.6667C10.4899 9.3335 10.3203 9.40373 10.1953 9.52876C10.0702 9.65378 10 9.82335 10 10.0002V22.0002C10 22.124 10.0345 22.2453 10.0996 22.3507C10.1647 22.456 10.2578 22.5411 10.3685 22.5964C10.4793 22.6518 10.6032 22.6753 10.7265 22.6641C10.8498 22.653 10.9676 22.6078 11.0667 22.5335L12.4467 21.5002L13.82 22.5335C13.9354 22.62 14.0758 22.6668 14.22 22.6668C14.3642 22.6668 14.5046 22.62 14.62 22.5335L16 21.5002L17.38 22.5335C17.4954 22.62 17.6358 22.6668 17.78 22.6668C17.9242 22.6668 18.0646 22.62 18.18 22.5335L19.5533 21.5002L20.9333 22.5335C21.0329 22.6077 21.1511 22.6526 21.2748 22.6632C21.3985 22.6738 21.5226 22.6497 21.6333 22.5935C21.7433 22.5381 21.8357 22.4533 21.9005 22.3486C21.9652 22.2439 21.9996 22.1233 22 22.0002V10.0002C22 9.82335 21.9298 9.65378 21.8047 9.52876C21.6797 9.40373 21.5101 9.3335 21.3333 9.3335ZM20.6667 20.6668L19.9533 20.1335C19.8379 20.0469 19.6976 20.0002 19.5533 20.0002C19.4091 20.0002 19.2687 20.0469 19.1533 20.1335L17.78 21.1668L16.4 20.1335C16.2846 20.0469 16.1442 20.0002 16 20.0002C15.8558 20.0002 15.7154 20.0469 15.6 20.1335L14.22 21.1668L12.8467 20.1335C12.7313 20.0469 12.5909 20.0002 12.4467 20.0002C12.3024 20.0002 12.1621 20.0469 12.0467 20.1335L11.3333 20.6668V10.6668H20.6667V20.6668Z" fill="#6983E6"/>
</svg>
