<svg width="112" height="140" viewBox="0 0 112 140" fill="none" xmlns="http://www.w3.org/2000/svg">
<path id="Union" fill-rule="evenodd" clip-rule="evenodd" d="M111.663 20.241C111.663 9.06289 102.6 0 91.4217 0C81.9945 0 74.0938 6.45518 71.8437 15.1807H42.5061C35.9952 15.1807 30.6988 20.4771 30.6988 26.988V69.1566H8.77114C4.0415 69.1566 0.337402 72.8607 0.337402 77.5904V111.325C0.337402 115.976 4.12078 119.759 8.77114 119.759H30.6988V128.193C30.6988 134.702 35.9952 140 42.5061 140H86.3615C92.8707 140 98.1687 134.702 98.1687 128.193V39.3063C106.026 36.5248 111.663 29.0508 111.663 20.241ZM8.77114 72.5301H62.747C65.5369 72.5301 67.8073 74.8005 67.8073 77.5904V94.4578H3.7109V77.5904C3.7109 74.706 5.8868 72.5301 8.77114 72.5301ZM3.7109 111.325V107.952H67.8073V111.325C67.8073 114.115 65.5369 116.386 62.747 116.386H8.77114C5.98126 116.386 3.7109 114.115 3.7109 111.325ZM94.7952 128.193C94.7952 132.843 91.0119 136.627 86.3615 136.627H42.5061C37.8557 136.627 34.0723 132.843 34.0723 128.193V119.759H62.747C67.3974 119.759 71.1808 115.976 71.1808 111.325V77.5904C71.1808 72.94 67.3974 69.1566 62.747 69.1566H34.0723V26.988C34.0723 22.3376 37.8557 18.5542 42.5061 18.5542H71.2651C71.2196 19.1125 71.1808 19.6708 71.1808 20.241C71.1808 31.419 80.2437 40.4819 91.4217 40.4819C92.5738 40.4819 93.6955 40.3639 94.7952 40.1783V128.193ZM100.176 16.4019L89.5494 26.5224C88.895 27.1448 87.8661 27.1431 87.2167 26.5157L82.6625 22.1301C81.9911 21.4841 81.9709 20.4164 82.6169 19.7451C83.2629 19.0737 84.3307 19.0535 85.002 19.6995L88.3923 22.9651L97.8499 13.9578C98.5246 13.3152 99.5923 13.3422 100.235 14.0152C100.876 14.6916 100.851 15.7593 100.176 16.4019ZM67.8073 25.3012H61.0603C60.1275 25.3012 59.3735 26.0569 59.3735 26.988C59.3735 27.919 60.1275 28.6747 61.0603 28.6747H67.8073C68.7401 28.6747 69.494 27.919 69.494 26.988C69.494 26.0569 68.7401 25.3012 67.8073 25.3012ZM54.3133 86.3614C53.4699 87.2048 52.2892 87.5422 50.9398 87.5422C48.0723 87.5422 45.8796 85.3494 45.8796 82.4819C45.8796 79.6144 48.0723 77.4217 50.9398 77.4217C52.2892 77.4217 53.4699 77.9277 54.3133 78.6024C55.1567 77.759 56.3374 77.4217 57.6868 77.4217C60.5543 77.4217 62.747 79.6144 62.747 82.4819C62.747 85.3494 60.5543 87.5422 57.6868 87.5422C56.3374 87.7108 55.1567 87.2048 54.3133 86.3614Z" fill="#6983E6"/>
</svg>
