<svg width="20" height="21" viewBox="0 0 20 21" fill="none" xmlns="http://www.w3.org/2000/svg">
<path fill-rule="evenodd" clip-rule="evenodd" d="M11.9107 3.24408C11.5853 3.56951 11.5853 4.09715 11.9107 4.42259L15.4882 8L11.9107 11.5774C11.5853 11.9028 11.5853 12.4305 11.9107 12.7559C12.2362 13.0814 12.7638 13.0814 13.0893 12.7559L17.2559 8.58926C17.5814 8.26382 17.5814 7.73618 17.2559 7.41074L13.0893 3.24408C12.7638 2.91864 12.2362 2.91864 11.9107 3.24408Z" fill="#8F98A8"/>
<path fill-rule="evenodd" clip-rule="evenodd" d="M17.5 7.99984C17.5 7.5396 17.1269 7.1665 16.6667 7.1665H6.66667C5.5616 7.1665 4.50179 7.60549 3.72039 8.38689C2.93899 9.16829 2.5 10.2281 2.5 11.3332V17.1665C2.5 17.6267 2.8731 17.9998 3.33333 17.9998C3.79357 17.9998 4.16667 17.6267 4.16667 17.1665V11.3332C4.16667 10.6701 4.43006 10.0342 4.8989 9.5654C5.36774 9.09656 6.00363 8.83317 6.66667 8.83317H16.6667C17.1269 8.83317 17.5 8.46007 17.5 7.99984Z" fill="#8F98A8"/>
</svg>
