<svg width="16" height="17" viewBox="0 0 16 17" fill="none" xmlns="http://www.w3.org/2000/svg">
<path fill-rule="evenodd" clip-rule="evenodd" d="M8.33398 1.8335C8.79359 1.8335 9.20973 2.01953 9.51124 2.3204C9.52292 2.33206 9.53443 2.34389 9.54577 2.35588C9.81227 2.63801 9.98133 3.01318 9.9991 3.42754L9.99964 3.44153C10.0003 3.46099 10.0007 3.48054 10.0007 3.50016V3.50967C10.0007 3.53677 10.0171 3.56113 10.0422 3.57151C10.0672 3.5819 10.0961 3.57632 10.1152 3.55714L10.122 3.55042C10.1358 3.53654 10.1499 3.52296 10.1641 3.50967L10.1744 3.50016C10.48 3.21972 10.8648 3.07398 11.2528 3.06294C11.2693 3.06247 11.2858 3.06225 11.3023 3.06226C11.7282 3.06271 12.154 3.22543 12.479 3.55042L12.9504 4.02182C13.2754 4.34681 13.4381 4.77261 13.4386 5.19856C13.4386 5.21506 13.4383 5.23155 13.4379 5.24805C13.4268 5.636 13.2811 6.02083 13.0007 6.32639L12.9911 6.33667C12.9779 6.3509 12.9643 6.36497 12.9504 6.37884L12.9437 6.38557C12.9245 6.40474 12.9189 6.43361 12.9293 6.45866C12.9397 6.48369 12.964 6.50016 12.9911 6.50016H13.0007C13.0203 6.50016 13.0398 6.5005 13.0593 6.50118L13.0733 6.50172C13.4876 6.51948 13.8628 6.68854 14.1449 6.95505C14.1569 6.96638 14.1688 6.97789 14.1804 6.98957C14.4813 7.29108 14.6673 7.70723 14.6673 8.16683V8.8335C14.6673 9.2931 14.4813 9.70924 14.1804 10.0108C14.1688 10.0224 14.1569 10.0339 14.1449 10.0453C13.8628 10.3118 13.4876 10.4808 13.0733 10.4986L13.0593 10.4992C13.0398 10.4998 13.0203 10.5002 13.0007 10.5002H12.9911C12.964 10.5002 12.9397 10.5166 12.9293 10.5417C12.9189 10.5667 12.9245 10.5956 12.9437 10.6148L12.9504 10.6215C12.9643 10.6354 12.9779 10.6494 12.9911 10.6637L13.0007 10.6739C13.2811 10.9795 13.4268 11.3643 13.4379 11.7523C13.4383 11.7688 13.4386 11.7853 13.4386 11.8018C13.4381 12.2277 13.2754 12.6535 12.9504 12.9785L12.479 13.4499C12.154 13.7749 11.7282 13.9376 11.3023 13.9381C11.2858 13.9381 11.2693 13.9379 11.2528 13.9374C10.8648 13.9263 10.48 13.7806 10.1744 13.5002L10.1641 13.4907C10.1499 13.4774 10.1358 13.4638 10.122 13.4499L10.1152 13.4432C10.0961 13.424 10.0672 13.4184 10.0422 13.4288C10.0171 13.4392 10.0007 13.4636 10.0007 13.4907V13.5002C10.0007 13.5198 10.0003 13.5393 9.99964 13.5588L9.9991 13.5728C9.98133 13.9871 9.81227 14.3623 9.54577 14.6444C9.53443 14.6564 9.52292 14.6683 9.51124 14.6799C9.20973 14.9808 8.79359 15.1668 8.33398 15.1668H7.66732C7.20772 15.1668 6.79157 14.9808 6.49006 14.6799C6.47838 14.6683 6.46687 14.6564 6.45554 14.6444C6.18903 14.3623 6.01997 13.9871 6.00221 13.5728L6.00166 13.5588C6.00099 13.5393 6.00065 13.5198 6.00065 13.5002V13.4907C6.00065 13.4636 5.98418 13.4392 5.95915 13.4288C5.9341 13.4184 5.90523 13.424 5.88605 13.4432L5.87933 13.4499C5.86545 13.4638 5.85139 13.4774 5.83715 13.4907L5.82688 13.5002C5.52132 13.7806 5.13648 13.9263 4.74853 13.9374C4.73204 13.9379 4.71555 13.9381 4.69905 13.9381C4.2731 13.9376 3.8473 13.7749 3.52231 13.4499L3.0509 12.9785C2.72592 12.6535 2.5632 12.2277 2.56275 11.8018C2.56273 11.7853 2.56296 11.7688 2.56343 11.7523C2.57447 11.3643 2.72021 10.9795 3.00065 10.6739L3.01016 10.6637C3.02345 10.6494 3.03703 10.6354 3.0509 10.6215L3.05763 10.6148C3.0768 10.5956 3.08239 10.5667 3.072 10.5417C3.06162 10.5166 3.03726 10.5002 3.01016 10.5002H3.00065C2.98103 10.5002 2.96148 10.4998 2.94202 10.4992L2.92803 10.4986C2.51367 10.4808 2.1385 10.3118 1.85637 10.0453C1.84437 10.0339 1.83255 10.0224 1.82089 10.0108C1.52002 9.70924 1.33398 9.2931 1.33398 8.8335V8.16683C1.33398 7.70723 1.52002 7.29108 1.82089 6.98957C1.83255 6.97789 1.84437 6.96638 1.85637 6.95505C2.1385 6.68854 2.51367 6.51948 2.92803 6.50172L2.94202 6.50118C2.96148 6.5005 2.98103 6.50016 3.00065 6.50016H3.01016C3.03726 6.50016 3.06162 6.48369 3.072 6.45866C3.08239 6.43361 3.0768 6.40474 3.05763 6.38557L3.0509 6.37884C3.03703 6.36497 3.02345 6.3509 3.01016 6.33667L3.00065 6.32639C2.72021 6.02083 2.57447 5.636 2.56343 5.24805C2.56296 5.23155 2.56273 5.21506 2.56275 5.19856C2.5632 4.77261 2.72592 4.34681 3.0509 4.02182L3.52231 3.55042C3.8473 3.22543 4.2731 3.06271 4.69905 3.06226C4.71555 3.06225 4.73204 3.06247 4.74853 3.06294C5.13648 3.07398 5.52132 3.21972 5.82688 3.50016L5.83716 3.50967C5.85139 3.52296 5.86545 3.53654 5.87933 3.55042L5.88605 3.55714C5.90523 3.57632 5.9341 3.5819 5.95915 3.57151C5.98418 3.56113 6.00065 3.53677 6.00065 3.50967V3.50016C6.00065 3.48054 6.00099 3.46099 6.00166 3.44153L6.00221 3.42754C6.01997 3.01318 6.18903 2.63801 6.45554 2.35588C6.46687 2.34389 6.47838 2.33206 6.49006 2.3204C6.79157 2.01953 7.20772 1.8335 7.66732 1.8335H8.33398ZM7.33398 13.5002C7.33398 13.6843 7.48322 13.8335 7.66732 13.8335H8.33398C8.51808 13.8335 8.66732 13.6843 8.66732 13.5002V13.4907C8.66732 12.9176 9.01478 12.4114 9.53143 12.1972C10.0491 11.9825 10.6531 12.0954 11.0581 12.5004L11.0648 12.5071C11.195 12.6373 11.406 12.6373 11.5362 12.5071L12.0076 12.0357C12.1378 11.9055 12.1378 11.6945 12.0076 11.5643L12.0009 11.5576C11.5959 11.1526 11.483 10.5486 11.6977 10.0309C11.9119 9.51428 12.4181 9.16683 12.9911 9.16683H13.0007C13.1847 9.16683 13.334 9.01759 13.334 8.8335V8.16683C13.334 7.98273 13.1847 7.8335 13.0007 7.8335H12.9911C12.4181 7.8335 11.9119 7.48604 11.6977 6.9694C11.483 6.45168 11.5959 5.84771 12.0009 5.44275L12.0076 5.43603C12.1378 5.30586 12.1378 5.0948 12.0076 4.96463L11.5362 4.49322C11.406 4.36305 11.195 4.36305 11.0648 4.49322L11.0581 4.49995C10.6531 4.9049 10.0491 5.01784 9.53143 4.80315C9.01476 4.5889 8.66732 4.0827 8.66732 3.50967V3.50016C8.66732 3.31607 8.51808 3.16683 8.33398 3.16683H7.66732C7.48322 3.16683 7.33398 3.31607 7.33398 3.50016V3.50967C7.33398 4.0827 6.98654 4.5889 6.46988 4.80315C5.95215 5.01784 5.3482 4.9049 4.94325 4.49995L4.93652 4.49322C4.80635 4.36305 4.59529 4.36305 4.46512 4.49322L3.99371 4.96463C3.86354 5.0948 3.86354 5.30586 3.99371 5.43603L4.00043 5.44275C4.40539 5.84771 4.51833 6.45168 4.30363 6.9694C4.08939 7.48604 3.5832 7.8335 3.01016 7.8335H3.00065C2.81656 7.8335 2.66732 7.98273 2.66732 8.16683V8.8335C2.66732 9.01759 2.81656 9.16683 3.00065 9.16683H3.01016C3.5832 9.16683 4.08939 9.51428 4.30363 10.0309C4.51833 10.5486 4.40539 11.1526 4.00044 11.5576L3.99371 11.5643C3.86354 11.6945 3.86354 11.9055 3.99371 12.0357L4.46512 12.5071C4.59529 12.6373 4.80635 12.6373 4.93652 12.5071L4.94324 12.5004C5.3482 12.0954 5.95216 11.9825 6.46988 12.1972C6.98652 12.4114 7.33398 12.9176 7.33398 13.4907V13.5002Z" fill="#6983E6"/>
<path fill-rule="evenodd" clip-rule="evenodd" d="M8.00065 9.8335C8.73703 9.8335 9.33398 9.23654 9.33398 8.50016C9.33398 7.76378 8.73703 7.16683 8.00065 7.16683C7.26427 7.16683 6.66732 7.76378 6.66732 8.50016C6.66732 9.23654 7.26427 9.8335 8.00065 9.8335ZM8.00065 11.1668C9.47341 11.1668 10.6673 9.97292 10.6673 8.50016C10.6673 7.0274 9.47341 5.8335 8.00065 5.8335C6.52789 5.8335 5.33398 7.0274 5.33398 8.50016C5.33398 9.97292 6.52789 11.1668 8.00065 11.1668Z" fill="#6983E6"/>
</svg>
