<svg width="112" height="141" viewBox="0 0 112 141" fill="none" xmlns="http://www.w3.org/2000/svg">
<path fill-rule="evenodd" clip-rule="evenodd" d="M95.2443 91.7659H102.728C107.76 91.7659 111.855 95.86 111.855 100.892V131.373C111.855 136.406 107.76 140.5 102.728 140.5H47.6035C42.5711 140.5 38.4769 136.406 38.4769 131.373V129.731H15.4779C7.02306 129.731 0.145264 122.855 0.145264 114.4V15.8327C0.145264 7.37779 7.02306 0.5 15.4779 0.5H72.9754C73.4847 0.5 73.9702 0.711737 74.317 1.08593L94.7131 23.123C95.0545 23.4661 95.2443 23.9298 95.2443 24.4117V91.7659ZM3.7959 114.402C3.7959 120.841 9.03638 126.082 15.4779 126.082H38.4769V100.892C38.4769 95.86 42.5711 91.7659 47.6035 91.7659H68.0471V89.5773C68.0471 87.5695 69.6898 85.9267 71.6977 85.9267H78.8164C80.8243 85.9267 82.4671 87.5695 82.4671 89.5773V91.7677H91.5937V26.0563H72.7929C71.7835 26.0563 70.9676 25.2385 70.9676 24.2309V4.15246H15.4779C9.03638 4.15246 3.7959 9.39294 3.7959 15.8345V114.402ZM102.728 136.851C105.747 136.851 108.204 134.394 108.204 131.375V100.892C108.204 97.8734 105.747 95.4165 102.728 95.4165H47.6035C44.5844 95.4165 42.1276 97.8734 42.1276 100.892V131.375C42.1276 134.394 44.5844 136.851 47.6035 136.851H102.728ZM17.4858 35.3636H61.4759C62.4853 35.3636 63.3012 34.5458 63.3012 33.5382C63.3012 32.5307 62.4853 31.7129 61.4759 31.7129H17.4858C16.4782 31.7129 15.6605 32.5307 15.6605 33.5382C15.6605 34.5458 16.4782 35.3636 17.4858 35.3636ZM17.4858 51.0613H44.683C45.6906 51.0613 46.5083 50.2435 46.5083 49.236C46.5083 48.2284 45.6906 47.4106 44.683 47.4106H17.4858C16.4782 47.4106 15.6605 48.2284 15.6605 49.236C15.6605 50.2435 16.4782 51.0613 17.4858 51.0613ZM68.0469 117.32H61.8409H55.6348C53.4444 117.32 51.6191 118.963 51.254 121.153L49.9763 129.002H73.7054L72.4277 121.153C72.0626 118.963 70.2373 117.32 68.0469 117.32ZM67.4995 110.202C67.1344 112.94 64.7615 114.947 62.0236 114.947C58.9205 114.947 56.5476 112.392 56.5476 109.471V108.559C56.9127 105.821 59.2856 103.813 62.0236 103.813H62.5712C63.4838 103.995 64.579 104.543 65.4917 105.273C66.5868 106.368 67.4995 107.829 67.4995 109.471V110.202ZM98.8949 106.551H82.467C81.4576 106.551 80.6417 107.367 80.6417 108.376C80.6417 109.386 81.4576 110.202 82.467 110.202H98.8949C99.9043 110.202 100.72 109.386 100.72 108.376C100.72 107.367 99.9025 106.551 98.8949 106.551ZM82.467 115.495H98.8949C99.9025 115.495 100.72 116.311 100.72 117.32C100.72 118.33 99.9043 119.146 98.8949 119.146H82.467C81.4576 119.146 80.6417 118.33 80.6417 117.32C80.6417 116.311 81.4576 115.495 82.467 115.495ZM98.8949 124.439H82.467C81.4576 124.439 80.6417 125.255 80.6417 126.264C80.6417 127.274 81.4576 128.09 82.467 128.09H98.8949C99.9043 128.09 100.72 127.274 100.72 126.264C100.72 125.255 99.9025 124.439 98.8949 124.439ZM41.4796 78.8244C41.3226 78.8244 41.1675 78.8134 41.0141 78.797C38.2031 78.421 37.7614 75.1007 37.4091 72.4339C37.3142 71.7129 37.1718 70.636 36.9911 69.9588C36.1752 70.7346 34.8263 72.8209 34.1199 73.9143C32.353 76.6486 31.172 78.4593 29.3321 78.2476C29.25 78.2403 29.1715 78.2257 29.093 78.2056C27.1162 77.7127 27.0778 75.5132 27.0249 72.4704C27.003 71.1964 26.9592 68.692 26.5905 67.741C25.2434 68.4675 22.5091 71.8535 18.4496 77.8241C17.8837 78.6564 16.7484 78.8773 15.9142 78.3078C15.08 77.7401 14.8628 76.6048 15.4305 75.7706C21.224 67.25 24.7122 63.1084 27.7386 64.1141C30.5431 64.8586 30.6134 68.8645 30.6755 72.4011L30.6755 72.4047C30.6755 72.4315 30.6765 72.4574 30.677 72.4837C30.6772 72.4932 30.6774 72.5027 30.6774 72.5124C30.7733 72.3665 30.8655 72.2234 30.9533 72.0872C30.9873 72.0343 31.0207 71.9825 31.0534 71.932C33.0156 68.8965 34.8701 66.0289 37.3818 66.0289C40.242 66.0289 40.6783 69.3145 41.0269 71.9557C41.1437 72.8446 41.35 74.3943 41.6329 75.0697C42.259 74.6334 44.5388 72.3719 48.4267 60.7063C48.7462 59.7516 49.7775 59.2332 50.7358 59.5527C51.6922 59.8721 52.2088 60.9052 51.8894 61.8617C47.0651 76.3346 44.0077 78.8244 41.4796 78.8244Z" fill="#6983E6"/>
</svg>
